<?xml version="1.0" encoding="UTF-8" standalone="no"?>
<svg
   xmlns:dc="http://purl.org/dc/elements/1.1/"
   xmlns:cc="http://creativecommons.org/ns#"
   xmlns:rdf="http://www.w3.org/1999/02/22-rdf-syntax-ns#"
   xmlns:svg="http://www.w3.org/2000/svg"
   xmlns="http://www.w3.org/2000/svg"
   viewBox="0 0 184.56 207.89333"
   height="207.89333"
   width="184.56"
   xml:space="preserve"
   id="svg2"
   version="1.1"><metadata
     id="metadata8"><rdf:RDF><cc:Work
         rdf:about=""><dc:format>image/svg+xml</dc:format><dc:type
           rdf:resource="http://purl.org/dc/dcmitype/StillImage" /></cc:Work></rdf:RDF></metadata><defs
     id="defs6" /><g
     transform="matrix(1.3333333,0,0,-1.3333333,0,207.89333)"
     id="g10"><g
       transform="scale(0.1)"
       id="g12"><path
         id="path14"
         style="fill:#3f769f;fill-opacity:1;fill-rule:nonzero;stroke:none"
         d="m 883.441,743.434 c -49.421,0 -89.492,40.07 -89.492,89.496 0,49.425 40.071,89.488 89.492,89.488 21.575,0 41.086,-7.938 56.536,-20.645 -42.258,72.942 -120.969,122.137 -211.329,122.137 -134.918,0 -244.293,-109.379 -244.293,-244.297 0,-134.922 109.375,-244.285 244.293,-244.285 134.911,0 244.286,109.363 244.286,244.285 0,11.25 -1.024,22.239 -2.5,33.086 -9.2,-39.64 -44.551,-69.265 -86.993,-69.265" /><path
         id="path16"
         style="fill:#3f769f;fill-opacity:1;fill-rule:nonzero;stroke:none"
         d="M 311.742,826.344 V 1559.23 H 0 V 627.516 C 0,199 271.063,0 693.09,0 794.254,0 886.656,11.3984 968.715,34.8906 V 423.078 H 714.828 c -222.672,0 -403.086,180.59 -403.086,403.266 z m 136.055,732.886 v -436.58 h 269.484 c 222.676,0 403.099,-180.587 403.099,-403.259 V 98.5391 C 1287.99,197.082 1384.24,371.18 1384.24,627.516 V 1559.23 H 447.797" /></g></g></svg>