<svg width="613" height="370" viewBox="0 0 613 370" fill="none" xmlns="http://www.w3.org/2000/svg">
<path opacity="0.07" d="M54.8373 252.745L23.3906 234.591L54.8352 216.435L86.2819 234.591L54.8373 252.745Z" fill="url(#paint0_linear_342_2611)"/>
<path d="M59.7364 219.885V212.701H48.7606L32.8118 203.494C31.1914 202.558 28.3617 202.675 26.4899 203.755L10.98 212.695H0.00424311V220.103C-0.0436512 220.736 0.3136 221.346 1.09188 221.797L26.9448 236.718C28.5652 237.652 31.395 237.536 33.2669 236.455L58.2018 222.059C59.2735 221.438 59.7923 220.63 59.7364 219.885Z" fill="#DBDEFF"/>
<path d="M26.9446 229.311L1.09962 214.39C-0.520809 213.454 -0.317301 211.819 1.55457 210.74L26.4995 196.341C28.3714 195.262 31.2012 195.144 32.8216 196.08L58.6666 211.001C60.287 211.937 60.0835 213.571 58.2116 214.651L33.2766 229.047C31.3868 230.129 28.557 230.247 26.9446 229.311Z" fill="white"/>
<path d="M29.7386 225.709C28.9646 225.728 28.1985 225.549 27.5135 225.188L8.6671 214.306C8.01254 213.929 7.65332 213.384 7.65332 212.775C7.65332 212.073 8.14219 211.378 8.9983 210.894L27.1822 200.395C28.6889 199.525 30.9041 199.441 32.2271 200.195L51.0735 211.077C51.7281 211.454 52.0873 211.999 52.0873 212.608C52.0873 213.31 51.5984 213.995 50.7422 214.49L32.5583 224.988C31.6953 225.465 30.7246 225.713 29.7386 225.709ZM27.9425 224.438C28.9862 225.036 30.898 224.953 32.1213 224.238L50.3052 213.739C50.878 213.41 51.2192 212.987 51.2192 212.608C51.2192 212.229 50.9019 211.981 50.6365 211.828L31.79 200.945C30.7463 200.347 28.8326 200.431 27.6112 201.145L9.43143 211.65C8.85869 211.979 8.51743 212.402 8.51743 212.781C8.51743 213.161 8.83471 213.408 9.10013 213.562L27.9425 224.438Z" fill="url(#paint1_radial_342_2611)"/>
<path d="M29.2334 216.3L23.6277 213.063C23.2764 212.863 23.3203 212.506 23.7274 212.265L29.1355 209.143C29.3436 209.027 29.576 208.962 29.8141 208.952C30.0522 208.942 30.2894 208.987 30.5065 209.086L36.1121 212.322C36.4634 212.522 36.4194 212.879 36.0123 213.121L30.6043 216.242C30.3962 216.358 30.1638 216.424 29.9257 216.434C29.6876 216.444 29.4505 216.398 29.2334 216.3Z" fill="url(#paint2_linear_342_2611)"/>
<path opacity="0.07" d="M231.199 369.901L199.754 351.745L231.199 333.591L262.643 351.747L231.199 369.901Z" fill="url(#paint3_linear_342_2611)"/>
<path d="M236.1 337.041V329.857H225.108L209.161 320.649C207.539 319.713 204.709 319.831 202.837 320.911L187.343 329.857H176.354V337.263C176.308 337.897 176.663 338.508 177.443 338.957L203.286 353.878C204.907 354.814 207.738 354.696 209.608 353.617L234.553 339.22C235.631 338.594 236.154 337.79 236.1 337.041Z" fill="#DBDEFF"/>
<path d="M203.298 346.466L177.455 331.545C175.832 330.609 176.036 328.975 177.908 327.894L202.853 313.497C204.725 312.418 207.554 312.3 209.177 313.236L235.02 328.157C236.64 329.093 236.437 330.727 234.567 331.807L209.622 346.203C207.746 347.285 204.918 347.4 203.298 346.466Z" fill="white"/>
<path d="M206.1 342.864C205.326 342.884 204.561 342.705 203.877 342.343L185.028 331.461C184.374 331.082 184.015 330.539 184.015 329.929C184.015 329.228 184.506 328.542 185.36 328.049L203.544 317.55C205.052 316.68 207.267 316.596 208.588 317.35L227.435 328.232C228.089 328.61 228.451 329.154 228.451 329.763C228.451 330.466 227.96 331.15 227.106 331.645L208.92 342.162C208.055 342.632 207.084 342.874 206.1 342.864ZM204.304 341.593C205.346 342.192 207.259 342.108 208.481 341.393L226.667 330.895C227.237 330.565 227.579 330.142 227.579 329.763C227.579 329.384 227.261 329.134 226.996 328.983L208.149 318.101C207.108 317.502 205.194 317.586 203.971 318.3L185.795 328.791C185.224 329.12 184.883 329.544 184.883 329.921C184.883 330.298 185.198 330.549 185.463 330.703L204.304 341.593Z" fill="url(#paint4_radial_342_2611)"/>
<path d="M205.595 333.455L199.991 330.218C199.64 330.019 199.684 329.661 200.089 329.42L205.497 326.299C205.705 326.182 205.937 326.116 206.176 326.106C206.414 326.096 206.651 326.142 206.868 326.241L212.474 329.478C212.825 329.677 212.781 330.035 212.376 330.276L206.968 333.399C206.759 333.515 206.526 333.58 206.288 333.589C206.049 333.599 205.812 333.553 205.595 333.455Z" fill="url(#paint5_linear_342_2611)"/>
<path opacity="0.07" d="M561.518 208.339L530.073 190.183L561.518 172.029L592.962 190.185L561.518 208.339Z" fill="url(#paint6_linear_342_2611)"/>
<path d="M566.419 175.48V168.296H555.443L539.494 159.088C537.874 158.152 535.042 158.27 533.17 159.349L517.662 168.29H506.687V175.695C506.641 176.33 506.996 176.94 507.776 177.389L533.619 192.311C535.24 193.246 538.071 193.129 539.943 192.049L564.888 177.653C565.956 177.032 566.475 176.228 566.419 175.48Z" fill="#DBDEFF"/>
<path d="M533.627 184.909L507.784 169.988C506.164 169.052 506.365 167.417 508.237 166.336L533.182 151.94C535.054 150.86 537.886 150.742 539.506 151.678L565.349 166.599C566.97 167.535 566.766 169.17 564.896 170.249L539.951 184.645C538.069 185.723 535.238 185.839 533.627 184.909Z" fill="white"/>
<path d="M536.421 181.303C535.648 181.322 534.882 181.142 534.198 180.78L515.35 169.9C514.697 169.521 514.336 168.978 514.336 168.367C514.336 167.667 514.827 166.98 515.681 166.487L533.867 155.988C535.374 155.118 537.589 155.035 538.91 155.789L557.758 166.671C558.411 167.048 558.772 167.593 558.772 168.201C558.772 168.904 558.281 169.598 557.427 170.083L539.241 180.582C538.378 181.059 537.407 181.307 536.421 181.303ZM534.625 180.031C535.667 180.63 537.581 180.546 538.802 179.832L556.988 169.333C557.558 169.002 557.9 168.581 557.9 168.201C557.9 167.822 557.584 167.573 557.319 167.421L538.471 156.539C537.429 155.941 535.515 156.024 534.294 156.739L516.108 167.238C515.537 167.567 515.196 167.99 515.196 168.367C515.196 168.744 515.511 168.996 515.777 169.149L534.625 180.031Z" fill="url(#paint7_radial_342_2611)"/>
<path d="M535.916 171.891L530.31 168.656C529.959 168.457 530.003 168.098 530.408 167.858L535.816 164.735C536.025 164.619 536.257 164.554 536.495 164.544C536.733 164.535 536.97 164.581 537.187 164.679L542.793 167.916C543.144 168.116 543.1 168.473 542.695 168.714L537.287 171.837C537.079 171.953 536.846 172.018 536.608 172.027C536.37 172.037 536.133 171.99 535.916 171.891Z" fill="url(#paint8_linear_342_2611)"/>
<path d="M515.146 289.021C514.959 289.021 514.775 288.973 514.613 288.881L512.905 287.921C512.662 287.776 512.485 287.541 512.412 287.267C512.339 286.993 512.376 286.701 512.515 286.454C512.653 286.207 512.883 286.023 513.155 285.942C513.427 285.862 513.719 285.89 513.97 286.022L515.681 286.981C515.891 287.1 516.056 287.284 516.15 287.506C516.244 287.728 516.262 287.975 516.201 288.208C516.14 288.441 516.003 288.647 515.812 288.794C515.621 288.941 515.387 289.021 515.146 289.021ZM506.598 284.22C506.412 284.219 506.228 284.171 506.066 284.08L504.356 283.118C504.231 283.048 504.121 282.954 504.033 282.841C503.944 282.729 503.879 282.6 503.84 282.462C503.801 282.324 503.79 282.18 503.807 282.038C503.824 281.896 503.869 281.759 503.939 281.634C504.01 281.509 504.104 281.4 504.216 281.311C504.329 281.223 504.457 281.158 504.595 281.119C504.733 281.08 504.877 281.069 505.019 281.086C505.161 281.103 505.298 281.148 505.423 281.218L507.133 282.18C507.344 282.298 507.509 282.482 507.603 282.704C507.697 282.926 507.715 283.173 507.654 283.406C507.592 283.64 507.456 283.846 507.265 283.993C507.074 284.14 506.84 284.22 506.598 284.22ZM498.049 279.416C497.863 279.415 497.679 279.367 497.517 279.276L495.806 278.315C495.555 278.173 495.369 277.937 495.291 277.659C495.213 277.381 495.249 277.083 495.39 276.831C495.532 276.579 495.768 276.393 496.046 276.315C496.324 276.237 496.622 276.273 496.874 276.415L498.584 277.377C498.794 277.495 498.959 277.679 499.054 277.901C499.148 278.123 499.166 278.37 499.104 278.603C499.043 278.836 498.907 279.042 498.716 279.189C498.525 279.337 498.29 279.416 498.049 279.416ZM489.5 274.613C489.314 274.612 489.131 274.564 488.969 274.473L487.259 273.513C487.135 273.443 487.025 273.349 486.936 273.237C486.848 273.124 486.782 272.995 486.744 272.857C486.705 272.72 486.694 272.576 486.711 272.434C486.728 272.292 486.773 272.154 486.843 272.029C486.913 271.905 487.007 271.795 487.12 271.707C487.232 271.618 487.361 271.553 487.499 271.514C487.637 271.475 487.781 271.464 487.923 271.481C488.065 271.498 488.202 271.543 488.327 271.613L490.035 272.573C490.245 272.691 490.41 272.876 490.504 273.098C490.599 273.32 490.616 273.566 490.555 273.8C490.494 274.033 490.357 274.239 490.167 274.386C489.976 274.533 489.741 274.613 489.5 274.613ZM480.953 269.809C480.766 269.81 480.583 269.762 480.42 269.67L478.71 268.71C478.458 268.568 478.273 268.332 478.195 268.054C478.117 267.776 478.152 267.478 478.294 267.226C478.435 266.974 478.671 266.789 478.95 266.711C479.228 266.633 479.526 266.668 479.778 266.81L481.488 267.77C481.698 267.888 481.863 268.072 481.957 268.294C482.051 268.516 482.069 268.763 482.008 268.996C481.947 269.229 481.81 269.436 481.619 269.583C481.428 269.73 481.194 269.81 480.953 269.809ZM472.404 265.006C472.217 265.006 472.034 264.958 471.871 264.866L470.163 263.906C469.92 263.761 469.743 263.526 469.67 263.252C469.598 262.978 469.634 262.686 469.773 262.439C469.912 262.192 470.141 262.008 470.413 261.927C470.685 261.847 470.977 261.875 471.229 262.007L472.939 262.968C473.149 263.086 473.315 263.27 473.41 263.492C473.504 263.714 473.522 263.961 473.461 264.194C473.4 264.428 473.263 264.634 473.071 264.781C472.88 264.928 472.645 265.007 472.404 265.006ZM463.857 260.205C463.67 260.204 463.487 260.156 463.324 260.065L461.614 259.103C461.489 259.033 461.379 258.939 461.291 258.826C461.203 258.714 461.137 258.585 461.098 258.447C461.06 258.309 461.049 258.165 461.066 258.023C461.083 257.881 461.128 257.744 461.198 257.619C461.268 257.494 461.362 257.385 461.474 257.296C461.587 257.208 461.716 257.142 461.853 257.104C461.991 257.065 462.135 257.054 462.277 257.071C462.419 257.088 462.557 257.133 462.681 257.203L464.39 258.165C464.6 258.283 464.765 258.467 464.859 258.689C464.953 258.911 464.971 259.157 464.91 259.39C464.849 259.623 464.713 259.83 464.522 259.977C464.332 260.124 464.098 260.204 463.857 260.205ZM455.308 255.401C455.121 255.401 454.938 255.353 454.775 255.261L453.065 254.302C452.813 254.16 452.627 253.924 452.549 253.646C452.471 253.368 452.507 253.07 452.649 252.818C452.79 252.566 453.026 252.381 453.304 252.303C453.583 252.224 453.88 252.26 454.132 252.402L455.842 253.362C456.053 253.48 456.218 253.664 456.312 253.886C456.406 254.108 456.424 254.355 456.363 254.588C456.302 254.821 456.165 255.027 455.974 255.175C455.783 255.322 455.549 255.401 455.308 255.401ZM446.759 250.598C446.572 250.598 446.388 250.55 446.226 250.458L444.517 249.498C444.274 249.352 444.098 249.117 444.025 248.843C443.952 248.569 443.989 248.278 444.128 248.031C444.266 247.783 444.496 247.6 444.768 247.519C445.039 247.439 445.332 247.467 445.583 247.598L447.293 248.558C447.503 248.676 447.669 248.861 447.763 249.083C447.857 249.304 447.875 249.551 447.813 249.784C447.752 250.018 447.616 250.224 447.425 250.371C447.234 250.518 447 250.598 446.759 250.598Z" fill="url(#paint9_linear_342_2611)"/>
<path d="M401.68 286.58C401.494 286.58 401.31 286.532 401.147 286.441L399.439 285.481C399.31 285.413 399.196 285.32 399.103 285.208C399.011 285.095 398.941 284.965 398.9 284.826C398.858 284.686 398.845 284.539 398.862 284.395C398.878 284.25 398.923 284.11 398.994 283.982C399.065 283.855 399.161 283.744 399.277 283.654C399.392 283.565 399.524 283.5 399.665 283.462C399.805 283.425 399.952 283.416 400.097 283.437C400.241 283.457 400.38 283.506 400.505 283.581L402.215 284.541C402.425 284.659 402.59 284.843 402.684 285.065C402.778 285.287 402.796 285.534 402.735 285.767C402.674 286 402.537 286.207 402.346 286.354C402.155 286.501 401.921 286.581 401.68 286.58ZM393.137 281.777C392.95 281.778 392.767 281.73 392.604 281.637L390.894 280.677C390.769 280.607 390.659 280.513 390.571 280.401C390.483 280.288 390.417 280.16 390.379 280.022C390.34 279.884 390.329 279.74 390.346 279.598C390.363 279.456 390.408 279.318 390.478 279.194C390.548 279.069 390.642 278.959 390.754 278.871C390.867 278.782 390.996 278.717 391.134 278.678C391.271 278.64 391.415 278.629 391.558 278.646C391.7 278.663 391.837 278.707 391.962 278.778L393.672 279.737C393.882 279.856 394.047 280.04 394.141 280.262C394.235 280.484 394.253 280.731 394.192 280.964C394.131 281.197 393.994 281.403 393.803 281.55C393.612 281.698 393.378 281.777 393.137 281.777ZM384.588 276.976C384.401 276.975 384.218 276.927 384.055 276.836L382.345 275.874C382.093 275.732 381.908 275.497 381.83 275.218C381.752 274.94 381.787 274.642 381.929 274.39C382.07 274.138 382.306 273.953 382.585 273.875C382.863 273.797 383.16 273.833 383.412 273.974L385.123 274.936C385.333 275.054 385.498 275.239 385.592 275.461C385.686 275.682 385.704 275.929 385.643 276.162C385.582 276.396 385.445 276.602 385.254 276.749C385.063 276.896 384.829 276.976 384.588 276.976Z" fill="url(#paint10_linear_342_2611)"/>
<path d="M137.206 151.345C137.019 151.345 136.836 151.297 136.673 151.205L134.965 150.245C134.84 150.175 134.73 150.081 134.642 149.969C134.553 149.856 134.488 149.727 134.449 149.59C134.411 149.452 134.4 149.308 134.417 149.166C134.434 149.024 134.479 148.886 134.549 148.762C134.619 148.637 134.713 148.527 134.825 148.439C134.938 148.35 135.067 148.285 135.204 148.246C135.342 148.208 135.486 148.196 135.628 148.214C135.77 148.231 135.908 148.275 136.032 148.345L137.741 149.305C137.951 149.423 138.116 149.608 138.21 149.83C138.304 150.052 138.322 150.298 138.261 150.532C138.2 150.765 138.063 150.971 137.872 151.118C137.681 151.265 137.447 151.345 137.206 151.345ZM128.659 146.542C128.472 146.542 128.288 146.494 128.126 146.402L126.416 145.442C126.164 145.3 125.978 145.064 125.9 144.786C125.822 144.508 125.858 144.21 126 143.958C126.141 143.706 126.377 143.521 126.655 143.443C126.934 143.365 127.231 143.4 127.483 143.542L129.194 144.502C129.404 144.62 129.569 144.805 129.663 145.026C129.757 145.248 129.775 145.495 129.714 145.728C129.653 145.961 129.516 146.168 129.325 146.315C129.134 146.462 128.9 146.542 128.659 146.542ZM120.11 141.74C119.923 141.739 119.74 141.691 119.577 141.6L117.869 140.639C117.739 140.571 117.625 140.478 117.532 140.366C117.44 140.253 117.371 140.123 117.329 139.983C117.288 139.844 117.275 139.697 117.291 139.552C117.307 139.407 117.352 139.267 117.423 139.14C117.495 139.013 117.591 138.901 117.706 138.812C117.821 138.723 117.953 138.657 118.094 138.62C118.235 138.583 118.382 138.574 118.526 138.594C118.67 138.615 118.809 138.664 118.934 138.739L120.644 139.701C120.854 139.819 121.02 140.003 121.114 140.225C121.208 140.447 121.226 140.694 121.165 140.927C121.103 141.16 120.967 141.366 120.776 141.513C120.585 141.661 120.351 141.74 120.11 141.74Z" fill="url(#paint11_linear_342_2611)"/>
<path d="M105.008 306.323C104.768 306.323 104.534 306.245 104.344 306.099C104.153 305.953 104.016 305.748 103.953 305.516C103.891 305.284 103.907 305.038 103.999 304.816C104.091 304.595 104.253 304.409 104.461 304.289L105.312 303.8C105.561 303.667 105.852 303.636 106.124 303.714C106.396 303.791 106.627 303.972 106.768 304.216C106.91 304.461 106.951 304.751 106.882 305.026C106.813 305.3 106.641 305.537 106.401 305.686L105.551 306.177C105.386 306.272 105.199 306.322 105.008 306.323Z" fill="url(#paint12_linear_342_2611)"/>
<path d="M112.235 302.15C111.995 302.152 111.76 302.073 111.569 301.928C111.378 301.782 111.24 301.577 111.178 301.345C111.116 301.113 111.132 300.867 111.224 300.645C111.316 300.423 111.479 300.238 111.688 300.119L113.284 299.197C113.408 299.125 113.545 299.079 113.687 299.06C113.829 299.041 113.973 299.051 114.112 299.088C114.25 299.125 114.379 299.189 114.493 299.276C114.606 299.363 114.702 299.472 114.773 299.596C114.845 299.72 114.891 299.857 114.91 299.998C114.928 300.14 114.919 300.285 114.882 300.423C114.845 300.561 114.781 300.691 114.694 300.804C114.607 300.918 114.498 301.013 114.374 301.085L112.778 302.004C112.613 302.1 112.425 302.15 112.235 302.15ZM120.205 297.548C119.966 297.548 119.733 297.469 119.543 297.323C119.353 297.177 119.216 296.973 119.154 296.742C119.092 296.511 119.107 296.265 119.199 296.044C119.29 295.822 119.451 295.637 119.658 295.517L121.255 294.595C121.505 294.45 121.803 294.411 122.082 294.486C122.361 294.561 122.599 294.744 122.744 294.994C122.888 295.244 122.927 295.542 122.852 295.821C122.778 296.1 122.595 296.338 122.344 296.483L120.748 297.403C120.583 297.498 120.396 297.549 120.205 297.548ZM128.176 292.946C127.935 292.947 127.702 292.869 127.511 292.723C127.32 292.577 127.183 292.373 127.121 292.141C127.058 291.909 127.075 291.663 127.167 291.441C127.259 291.219 127.422 291.034 127.631 290.915L129.227 289.993C129.475 289.874 129.758 289.853 130.02 289.933C130.283 290.014 130.505 290.191 130.643 290.428C130.78 290.666 130.823 290.947 130.763 291.214C130.703 291.482 130.543 291.717 130.317 291.873L128.72 292.793C128.556 292.892 128.368 292.945 128.176 292.946ZM136.146 288.345C135.906 288.345 135.673 288.266 135.482 288.12C135.292 287.974 135.155 287.769 135.093 287.537C135.031 287.305 135.047 287.059 135.139 286.838C135.231 286.616 135.393 286.431 135.601 286.311L137.198 285.391C137.322 285.32 137.459 285.273 137.6 285.255C137.742 285.236 137.886 285.245 138.025 285.282C138.163 285.319 138.293 285.383 138.406 285.47C138.52 285.558 138.615 285.666 138.686 285.79C138.758 285.914 138.804 286.051 138.823 286.193C138.842 286.335 138.832 286.479 138.795 286.617C138.758 286.755 138.694 286.885 138.607 286.999C138.52 287.112 138.411 287.207 138.287 287.279L136.691 288.199C136.525 288.295 136.337 288.345 136.146 288.345ZM144.119 283.743C143.878 283.743 143.645 283.665 143.454 283.519C143.263 283.373 143.126 283.168 143.064 282.936C143.001 282.704 143.017 282.458 143.109 282.236C143.201 282.015 143.364 281.829 143.572 281.709L145.168 280.789C145.418 280.645 145.716 280.606 145.995 280.681C146.274 280.755 146.512 280.938 146.657 281.188C146.801 281.439 146.84 281.736 146.766 282.015C146.691 282.295 146.508 282.533 146.258 282.677L144.661 283.597C144.496 283.693 144.309 283.743 144.119 283.743ZM152.089 279.141C151.849 279.142 151.615 279.063 151.424 278.917C151.234 278.771 151.096 278.566 151.034 278.334C150.972 278.102 150.988 277.856 151.08 277.635C151.171 277.413 151.334 277.227 151.542 277.107L153.139 276.187C153.263 276.116 153.399 276.069 153.541 276.051C153.683 276.032 153.827 276.042 153.966 276.079C154.104 276.116 154.233 276.18 154.347 276.267C154.46 276.354 154.556 276.463 154.627 276.587C154.699 276.71 154.745 276.847 154.764 276.989C154.783 277.131 154.773 277.275 154.736 277.414C154.699 277.552 154.635 277.681 154.548 277.795C154.461 277.908 154.352 278.004 154.228 278.075L152.632 278.995C152.467 279.09 152.279 279.141 152.089 279.141Z" fill="url(#paint13_linear_342_2611)"/>
<path d="M160.051 274.539C159.811 274.539 159.578 274.46 159.387 274.314C159.197 274.168 159.06 273.963 158.998 273.731C158.936 273.499 158.952 273.254 159.044 273.032C159.136 272.81 159.298 272.625 159.506 272.505L160.354 272.014C160.606 271.869 160.905 271.83 161.186 271.906C161.466 271.981 161.705 272.165 161.85 272.417C161.995 272.668 162.034 272.967 161.959 273.248C161.883 273.528 161.7 273.767 161.448 273.912L160.6 274.403C160.432 274.495 160.243 274.542 160.051 274.539Z" fill="url(#paint14_linear_342_2611)"/>
<path d="M227.544 317.985C227.304 317.986 227.071 317.906 226.881 317.76C226.69 317.614 226.553 317.41 226.491 317.178C226.429 316.946 226.445 316.7 226.537 316.478C226.629 316.257 226.792 316.072 226.999 315.952L227.85 315.463C227.973 315.392 228.11 315.345 228.252 315.327C228.393 315.308 228.538 315.318 228.676 315.355C228.814 315.392 228.943 315.456 229.056 315.543C229.17 315.63 229.265 315.738 229.336 315.862C229.408 315.986 229.454 316.123 229.473 316.264C229.491 316.406 229.482 316.55 229.445 316.688C229.408 316.826 229.344 316.956 229.257 317.069C229.169 317.182 229.061 317.277 228.937 317.349L228.089 317.84C227.923 317.935 227.735 317.985 227.544 317.985Z" fill="url(#paint15_linear_342_2611)"/>
<path d="M233.004 314.834C232.764 314.835 232.53 314.756 232.34 314.61C232.149 314.464 232.012 314.26 231.949 314.028C231.887 313.796 231.903 313.55 231.995 313.328C232.087 313.106 232.249 312.921 232.457 312.801L233.611 312.136C233.86 312.003 234.152 311.972 234.423 312.05C234.695 312.127 234.926 312.308 235.068 312.552C235.209 312.797 235.25 313.087 235.181 313.361C235.113 313.636 234.94 313.873 234.7 314.022L233.547 314.687C233.382 314.783 233.195 314.834 233.004 314.834Z" fill="url(#paint16_linear_342_2611)"/>
<path d="M238.766 311.507C238.526 311.508 238.292 311.429 238.101 311.283C237.911 311.137 237.774 310.932 237.711 310.701C237.649 310.469 237.665 310.223 237.757 310.001C237.849 309.779 238.011 309.594 238.219 309.474L239.069 308.983C239.32 308.838 239.617 308.799 239.896 308.874C240.175 308.949 240.413 309.132 240.558 309.382C240.702 309.632 240.742 309.93 240.667 310.209C240.592 310.488 240.409 310.726 240.159 310.871L239.309 311.362C239.144 311.457 238.956 311.507 238.766 311.507Z" fill="url(#paint17_linear_342_2611)"/>
<path d="M50.3474 203.506C50.1079 203.506 49.8751 203.427 49.6851 203.281C49.4951 203.135 49.3585 202.931 49.2962 202.7C49.234 202.468 49.2497 202.223 49.3409 202.002C49.432 201.78 49.5936 201.595 49.8006 201.474L50.6508 200.983C50.9001 200.85 51.1915 200.819 51.4633 200.897C51.7352 200.974 51.9662 201.155 52.1076 201.399C52.249 201.644 52.2897 201.934 52.2212 202.209C52.1527 202.483 51.9803 202.72 51.7404 202.869L50.8903 203.36C50.7254 203.456 50.5381 203.506 50.3474 203.506Z" fill="url(#paint18_linear_342_2611)"/>
<path d="M57.134 199.588C56.8941 199.588 56.6609 199.509 56.4705 199.363C56.2801 199.217 56.1432 199.012 56.0811 198.781C56.019 198.549 56.0351 198.303 56.127 198.081C56.2189 197.86 56.3814 197.675 56.5892 197.555L58.074 196.696C58.3244 196.552 58.6218 196.513 58.901 196.588C59.1802 196.663 59.4183 196.845 59.5628 197.096C59.7072 197.346 59.7463 197.644 59.6715 197.923C59.5967 198.202 59.414 198.44 59.1636 198.584L57.6788 199.44C57.5135 199.537 57.3255 199.588 57.134 199.588ZM64.5657 195.316C64.325 195.316 64.0909 195.237 63.9001 195.09C63.7092 194.943 63.5723 194.737 63.5108 194.505C63.4492 194.272 63.4665 194.025 63.5599 193.803C63.6533 193.581 63.8174 193.397 64.0268 193.278L65.5155 192.432C65.64 192.359 65.7779 192.311 65.921 192.291C66.0641 192.272 66.2097 192.281 66.3492 192.318C66.4888 192.355 66.6196 192.42 66.7339 192.508C66.8483 192.596 66.944 192.706 67.0155 192.832C67.0869 192.958 67.1327 193.096 67.1501 193.239C67.1675 193.383 67.1563 193.528 67.117 193.667C67.0777 193.806 67.0111 193.936 66.9212 194.049C66.8313 194.162 66.7198 194.256 66.5932 194.326L65.1025 195.172C64.9394 195.266 64.7542 195.316 64.5657 195.316Z" fill="url(#paint19_linear_342_2611)"/>
<path d="M73.7122 191.095C73.5176 191.096 73.3266 191.043 73.1594 190.944L72.8581 190.766L72.5547 190.94C72.3039 191.077 72.009 191.111 71.7336 191.033C71.4582 190.955 71.2245 190.772 71.083 190.524C70.9414 190.275 70.9035 189.98 70.9772 189.704C71.051 189.427 71.2305 189.191 71.4771 189.046L72.3292 188.561C72.4954 188.465 72.6841 188.414 72.8761 188.414C73.0681 188.414 73.2567 188.465 73.4228 188.561L74.267 189.06C74.4726 189.181 74.6326 189.367 74.7223 189.589C74.812 189.81 74.8265 190.055 74.7634 190.285C74.7004 190.516 74.5633 190.719 74.3734 190.864C74.1834 191.009 73.9511 191.087 73.7122 191.087V191.095Z" fill="url(#paint20_linear_342_2611)"/>
<path d="M98.04 205.444C97.8454 205.444 97.6545 205.391 97.4873 205.292L95.8668 204.336C95.6201 204.188 95.4418 203.949 95.3707 203.67C95.2997 203.392 95.3418 203.096 95.4877 202.848C95.6336 202.601 95.8715 202.421 96.1496 202.347C96.4277 202.274 96.7235 202.314 96.9724 202.458L98.5948 203.416C98.8004 203.538 98.9604 203.723 99.0501 203.945C99.1398 204.166 99.1543 204.411 99.0912 204.642C99.0282 204.872 98.8911 205.075 98.7012 205.22C98.5112 205.365 98.2789 205.444 98.04 205.444ZM89.9299 200.654C89.7361 200.654 89.5459 200.601 89.3791 200.502L87.7567 199.545C87.6295 199.474 87.5177 199.379 87.4279 199.264C87.3382 199.149 87.2723 199.018 87.2341 198.878C87.1959 198.737 87.1863 198.591 87.2058 198.446C87.2252 198.302 87.2733 198.163 87.3473 198.038C87.4213 197.913 87.5197 197.803 87.6365 197.717C87.7534 197.63 87.8865 197.568 88.0279 197.533C88.1693 197.499 88.3161 197.493 88.4597 197.516C88.6034 197.54 88.7409 197.591 88.8642 197.669L90.4846 198.627C90.6903 198.748 90.8503 198.934 90.94 199.155C91.0297 199.377 91.0442 199.622 90.9811 199.852C90.9181 200.083 90.781 200.286 90.5911 200.431C90.4011 200.576 90.1688 200.654 89.9299 200.654ZM81.8238 195.885C81.6294 195.885 81.4385 195.833 81.271 195.735L79.6486 194.777C79.5214 194.706 79.4096 194.611 79.3198 194.497C79.2301 194.382 79.1642 194.251 79.126 194.11C79.0879 193.97 79.0782 193.823 79.0977 193.679C79.1171 193.535 79.1653 193.396 79.2392 193.27C79.3132 193.145 79.4116 193.036 79.5284 192.949C79.6453 192.863 79.7784 192.8 79.9198 192.766C80.0612 192.731 80.208 192.726 80.3516 192.749C80.4953 192.772 80.6328 192.824 80.7561 192.901L82.3785 193.857C82.5842 193.979 82.7442 194.165 82.8339 194.386C82.9236 194.607 82.938 194.852 82.875 195.083C82.8119 195.313 82.6749 195.516 82.4849 195.661C82.295 195.806 82.0627 195.885 81.8238 195.885Z" fill="url(#paint21_linear_342_2611)"/>
<path d="M105.372 209.77C105.177 209.769 104.987 209.717 104.819 209.618L103.975 209.119C103.734 208.968 103.562 208.73 103.495 208.454C103.428 208.178 103.471 207.887 103.615 207.642C103.76 207.397 103.994 207.219 104.268 207.145C104.542 207.07 104.834 207.106 105.082 207.243L105.926 207.74C106.133 207.862 106.294 208.047 106.384 208.269C106.475 208.491 106.49 208.736 106.426 208.968C106.363 209.199 106.226 209.402 106.035 209.547C105.844 209.693 105.611 209.771 105.372 209.77Z" fill="url(#paint22_linear_342_2611)"/>
<path d="M393.405 132.728C393.164 132.729 392.931 132.65 392.74 132.504C392.55 132.358 392.412 132.153 392.35 131.921C392.288 131.689 392.303 131.443 392.395 131.222C392.487 131 392.65 130.814 392.858 130.694L393.708 130.204C393.958 130.059 394.256 130.02 394.535 130.095C394.814 130.17 395.052 130.352 395.197 130.603C395.341 130.853 395.38 131.15 395.305 131.43C395.231 131.709 395.048 131.947 394.798 132.091L393.947 132.58C393.783 132.677 393.595 132.728 393.405 132.728Z" fill="url(#paint23_linear_342_2611)"/>
<path d="M400.63 128.555C400.39 128.556 400.157 128.477 399.966 128.331C399.775 128.185 399.638 127.98 399.575 127.748C399.513 127.516 399.529 127.271 399.621 127.049C399.713 126.827 399.875 126.641 400.083 126.521L401.68 125.602C401.93 125.457 402.228 125.418 402.507 125.493C402.786 125.568 403.024 125.75 403.169 126.001C403.313 126.251 403.352 126.548 403.277 126.828C403.203 127.107 403.02 127.345 402.769 127.489L401.173 128.409C401.008 128.505 400.821 128.555 400.63 128.555ZM408.601 123.953C408.361 123.953 408.127 123.874 407.937 123.728C407.747 123.582 407.61 123.377 407.548 123.146C407.486 122.914 407.502 122.668 407.594 122.446C407.685 122.225 407.848 122.04 408.056 121.92L409.652 121C409.903 120.855 410.2 120.816 410.479 120.891C410.759 120.966 410.997 121.148 411.141 121.399C411.285 121.649 411.325 121.947 411.25 122.226C411.175 122.505 410.992 122.743 410.742 122.888L409.145 123.807C408.98 123.904 408.792 123.954 408.601 123.953ZM416.571 119.351C416.331 119.351 416.098 119.272 415.907 119.126C415.717 118.98 415.58 118.775 415.518 118.544C415.456 118.312 415.472 118.066 415.564 117.844C415.656 117.623 415.818 117.438 416.026 117.318L417.623 116.398C417.873 116.253 418.17 116.214 418.45 116.289C418.729 116.364 418.967 116.547 419.111 116.797C419.256 117.047 419.295 117.345 419.22 117.624C419.145 117.903 418.963 118.141 418.712 118.286L417.116 119.206C416.95 119.301 416.762 119.351 416.571 119.351ZM424.543 114.75C424.303 114.75 424.07 114.671 423.879 114.525C423.688 114.38 423.551 114.175 423.489 113.943C423.426 113.711 423.442 113.465 423.534 113.243C423.626 113.021 423.789 112.836 423.997 112.716L425.593 111.796C425.717 111.719 425.855 111.667 426 111.644C426.144 111.622 426.292 111.628 426.433 111.664C426.575 111.699 426.708 111.763 426.825 111.851C426.942 111.939 427.04 112.049 427.113 112.176C427.186 112.302 427.233 112.442 427.251 112.587C427.269 112.732 427.257 112.879 427.217 113.02C427.177 113.16 427.109 113.292 427.017 113.405C426.926 113.519 426.812 113.613 426.683 113.682L425.086 114.604C424.921 114.699 424.734 114.749 424.543 114.75ZM432.514 110.148C432.274 110.148 432.04 110.069 431.849 109.924C431.659 109.778 431.521 109.573 431.459 109.341C431.397 109.109 431.413 108.863 431.505 108.641C431.597 108.419 431.759 108.234 431.967 108.114L433.564 107.194C433.688 107.107 433.828 107.047 433.977 107.018C434.125 106.989 434.278 106.99 434.425 107.023C434.573 107.056 434.712 107.119 434.834 107.209C434.956 107.299 435.058 107.413 435.133 107.544C435.209 107.675 435.256 107.82 435.272 107.971C435.288 108.121 435.273 108.273 435.227 108.417C435.181 108.562 435.105 108.695 435.005 108.808C434.905 108.921 434.783 109.013 434.645 109.076L433.049 109.998C432.886 110.093 432.702 110.144 432.514 110.148ZM440.484 105.546C440.244 105.546 440.011 105.467 439.821 105.321C439.63 105.175 439.493 104.97 439.431 104.738C439.369 104.506 439.385 104.261 439.477 104.039C439.569 103.817 439.732 103.632 439.94 103.512L441.536 102.592C441.66 102.521 441.798 102.474 441.94 102.456C442.082 102.437 442.227 102.446 442.365 102.484C442.504 102.521 442.634 102.585 442.748 102.673C442.862 102.76 442.957 102.869 443.029 102.993C443.1 103.118 443.147 103.255 443.165 103.397C443.184 103.54 443.174 103.684 443.137 103.823C443.1 103.961 443.036 104.091 442.948 104.205C442.861 104.319 442.752 104.414 442.628 104.486L441.031 105.406C440.864 105.5 440.676 105.548 440.484 105.546Z" fill="url(#paint24_linear_342_2611)"/>
<path d="M448.455 100.944C448.215 100.944 447.982 100.865 447.792 100.719C447.601 100.573 447.464 100.368 447.402 100.136C447.34 99.9044 447.356 99.6586 447.448 99.4369C447.54 99.2153 447.703 99.0301 447.91 98.9103L448.759 98.4194C449.009 98.2749 449.306 98.2358 449.586 98.3106C449.865 98.3855 450.103 98.5681 450.247 98.8185C450.392 99.0688 450.431 99.3663 450.356 99.6455C450.281 99.9247 450.099 100.163 449.848 100.307L449 100.796C448.835 100.893 448.647 100.944 448.455 100.944Z" fill="url(#paint25_linear_342_2611)"/>
<path opacity="0.07" d="M91.0592 366.498L62.4863 350.003L94.2263 331.918L122.799 348.414L91.0592 366.498Z" fill="url(#paint26_linear_342_2611)"/>
<path d="M97.3159 333.497C97.3159 333.441 97.3159 333.385 97.3159 333.331V328.686H90.5568L68.8986 316.181C67.5017 315.383 65.0571 315.477 63.4427 316.409L42.1755 328.686H35.4185V333.507C35.3785 334.054 35.6879 334.581 36.3584 334.968L63.8357 350.833C65.2327 351.631 67.6753 351.539 69.2897 350.605L95.9928 335.195C96.831 334.71 97.282 334.098 97.3239 333.507L97.3159 333.497Z" fill="white"/>
<path d="M63.8353 346.012L36.3579 330.148C34.961 329.34 35.1346 327.931 36.757 326.999L63.4502 311.587C65.0646 310.656 67.5072 310.554 68.9061 311.362L96.3815 327.225C97.7785 328.033 97.6048 329.442 95.9824 330.374L69.2893 345.786C67.6748 346.718 65.2342 346.82 63.8353 346.012Z" fill="white"/>
<path style="mix-blend-mode:darken" opacity="0.6" d="M87.1383 328.562V273.637H45.5959V328.686C45.57 329.053 45.7756 329.406 46.2266 329.668L64.6678 340.314C65.6057 340.857 67.2462 340.789 68.3298 340.162L86.2442 329.819C86.8669 329.46 87.1702 328.991 87.1383 328.562Z" fill="url(#paint27_linear_342_2611)"/>
<path style="mix-blend-mode:darken" opacity="0.41" d="M97.3159 328.676C97.3159 328.622 97.3159 328.566 97.3159 328.51V275.176H35.4185V328.686C35.3785 329.233 35.6879 329.759 36.3584 330.148L63.8357 346.012C65.2327 346.82 67.6753 346.718 69.2897 345.786L95.9928 330.374C96.831 329.891 97.282 329.276 97.3239 328.686L97.3159 328.676Z" fill="url(#paint28_linear_342_2611)"/>
<path d="M64.6613 285.263L46.22 274.617C45.2821 274.076 45.3999 273.128 46.4835 272.503L64.3979 262.16C65.4816 261.534 67.1199 261.466 68.0598 262.009L86.5011 272.655C87.4391 273.198 87.3214 274.144 86.2378 274.769L68.3233 285.112C67.2556 285.738 65.6053 285.806 64.6613 285.263Z" fill="white"/>
<path d="M97.3159 276.036C97.3159 275.982 97.3159 275.926 97.3159 275.87V271.226H90.5568L68.8986 258.722C67.5017 257.914 65.0571 258.015 63.4427 258.947L42.1755 271.226H35.4185V276.046C35.3785 276.592 35.6879 277.119 36.3584 277.508L63.8357 293.371C65.2327 294.18 67.6753 294.078 69.2897 293.146L95.9928 277.734C96.831 277.251 97.282 276.636 97.3239 276.046L97.3159 276.036Z" fill="#DBDEFF"/>
<path d="M63.8353 288.552L36.3579 272.687C34.961 271.889 35.1346 270.47 36.757 269.538L63.4502 254.126C65.0646 253.194 67.5072 253.095 68.9061 253.901L96.3815 269.766C97.7785 270.564 97.6048 271.983 95.9824 272.915L69.2893 288.325C67.6748 289.257 65.2342 289.358 63.8353 288.552Z" fill="white"/>
<path d="M80.0534 271.448V268.151H75.0205L67.7106 263.934C66.9682 263.505 65.6711 263.559 64.813 264.054L57.7127 268.153H52.6758V271.545C52.6538 271.837 52.8175 272.116 53.1747 272.322L65.0186 279.161C65.7609 279.59 67.0581 279.536 67.9162 279.041L79.3429 272.441C79.8398 272.158 80.0793 271.791 80.0534 271.448Z" fill="#DBDEFF"/>
<path d="M65.0229 275.766L53.179 268.923C52.4346 268.494 52.5284 267.746 53.3785 267.251L64.8054 260.654C65.6635 260.159 66.9606 260.105 67.703 260.534L79.5468 267.371C80.2892 267.8 80.1974 268.548 79.3472 269.043L67.9205 275.642C67.0564 276.141 65.7652 276.195 65.0229 275.766Z" fill="#F5F6FF"/>
<path d="M66.3063 274.112C65.9515 274.121 65.6003 274.038 65.2865 273.873L56.6496 268.884C56.5159 268.819 56.4021 268.72 56.3202 268.596C56.2384 268.473 56.1915 268.329 56.1846 268.181C56.1846 267.86 56.41 267.547 56.8012 267.319L65.1348 262.508C65.8253 262.109 66.8411 262.071 67.4458 262.42L76.0847 267.409C76.2184 267.473 76.3321 267.572 76.414 267.696C76.4958 267.82 76.5427 267.963 76.5496 268.111C76.5496 268.433 76.3241 268.748 75.933 268.973L67.5994 273.785C67.2033 274.002 66.7582 274.115 66.3063 274.112ZM65.486 273.529C65.963 273.805 66.8391 273.765 67.3999 273.442L75.7334 268.63C75.9949 268.478 76.1525 268.285 76.1525 268.111C76.1428 268.034 76.113 267.96 76.0661 267.897C76.0192 267.835 75.9569 267.785 75.8852 267.754L67.2482 262.765C66.7692 262.488 65.8932 262.53 65.3344 262.853L57.0007 267.664C56.7373 267.814 56.5816 268.007 56.5816 268.181C56.5915 268.259 56.621 268.332 56.6675 268.395C56.714 268.458 56.7758 268.508 56.8471 268.54L65.486 273.529Z" fill="url(#paint29_radial_342_2611)"/>
<path d="M66.075 269.804L63.5066 268.321C63.345 268.227 63.3649 268.065 63.5525 267.958L66.031 266.527C66.126 266.473 66.2324 266.443 66.3413 266.439C66.4502 266.434 66.5586 266.455 66.6577 266.501L69.228 267.984C69.3876 268.075 69.3677 268.239 69.1821 268.347L66.7036 269.778C66.6079 269.83 66.5014 269.86 66.3924 269.864C66.2833 269.869 66.1747 269.848 66.075 269.804Z" fill="url(#paint30_linear_342_2611)"/>
<path opacity="0.07" d="M580.572 350.443L552.001 333.948L583.739 315.864L612.312 332.359L580.572 350.443Z" fill="url(#paint31_linear_342_2611)"/>
<path d="M586.828 317.442C586.832 317.387 586.832 317.331 586.828 317.275V312.627H580.069L558.41 300.123C557.014 299.324 554.569 299.416 552.954 300.348L531.689 312.627H524.93V317.448C524.89 317.993 525.198 318.522 525.868 318.909L553.348 334.778C554.745 335.586 557.189 335.485 558.804 334.553L585.495 319.143C586.335 318.658 586.784 318.045 586.826 317.454L586.828 317.442Z" fill="white"/>
<path d="M553.347 329.957L525.87 314.092C524.473 313.293 524.649 311.875 526.269 310.943L552.96 295.533C554.575 294.601 557.017 294.499 558.416 295.305L585.894 311.17C587.29 311.968 587.115 313.387 585.494 314.319L558.803 329.729C557.189 330.663 554.746 330.763 553.347 329.957Z" fill="white"/>
<path style="mix-blend-mode:darken" opacity="0.6" d="M576.65 312.505V257.581H535.108V312.627C535.082 312.994 535.287 313.347 535.738 313.609L554.18 324.255C555.118 324.796 556.758 324.728 557.841 324.104L575.756 313.761C576.379 313.405 576.682 312.94 576.65 312.505Z" fill="url(#paint32_linear_342_2611)"/>
<path style="mix-blend-mode:darken" opacity="0.41" d="M586.828 312.627C586.832 312.572 586.832 312.517 586.828 312.461V259.121H524.93V312.627C524.89 313.174 525.198 313.701 525.868 314.088L553.345 329.953C554.742 330.751 557.187 330.659 558.802 329.725L585.493 314.315C586.333 313.83 586.782 313.218 586.824 312.627H586.828Z" fill="url(#paint33_linear_342_2611)"/>
<path d="M554.182 269.209L535.74 258.562C534.803 258.019 534.92 257.073 536.004 256.449L553.918 246.104C555.002 245.479 556.642 245.411 557.58 245.952L576.022 256.6C576.96 257.141 576.842 258.087 575.758 258.714L557.844 269.057C556.758 269.682 555.118 269.75 554.182 269.209Z" fill="white"/>
<path d="M586.828 259.981C586.832 259.926 586.832 259.871 586.828 259.816V255.17H580.069L558.41 242.666C557.014 241.867 554.569 241.961 552.954 242.893L531.689 255.17H524.93V259.991C524.89 260.538 525.198 261.065 525.868 261.452L553.345 277.317C554.742 278.115 557.187 278.022 558.802 277.09L585.493 261.68C586.333 261.195 586.782 260.582 586.824 259.991L586.828 259.981Z" fill="#DBDEFF"/>
<path d="M553.347 272.495L525.87 256.632C524.473 255.824 524.649 254.415 526.269 253.483L552.96 238.071C554.575 237.139 557.017 237.038 558.416 237.846L585.894 253.709C587.29 254.517 587.115 255.926 585.494 256.858L558.803 272.27C557.189 273.202 554.746 273.314 553.347 272.495Z" fill="white"/>
<path d="M569.566 255.391V252.096H564.533L557.223 247.876C556.481 247.447 555.184 247.5 554.326 247.995L547.225 252.096H542.19V255.489C542.168 255.778 542.332 256.058 542.689 256.265L554.533 263.102C555.275 263.531 556.573 263.477 557.431 262.982L568.858 256.385C569.348 256.103 569.592 255.734 569.566 255.391Z" fill="#DBDEFF"/>
<path d="M554.535 259.71L542.691 252.873C541.949 252.444 542.04 251.696 542.89 251.199L554.317 244.601C555.175 244.106 556.473 244.053 557.215 244.482L569.059 251.32C569.801 251.75 569.709 252.498 568.859 252.993L557.432 259.59C556.576 260.085 555.277 260.143 554.535 259.71Z" fill="#F5F6FF"/>
<path d="M555.818 258.059C555.463 258.069 555.112 257.986 554.798 257.82L546.161 252.831C546.027 252.767 545.914 252.667 545.832 252.544C545.75 252.42 545.703 252.276 545.696 252.128C545.696 251.807 545.922 251.492 546.313 251.266L554.646 246.455C555.337 246.056 556.353 246.018 556.959 246.367L565.596 251.356C565.73 251.42 565.844 251.52 565.925 251.643C566.007 251.767 566.054 251.91 566.061 252.059C566.061 252.38 565.836 252.693 565.445 252.921L557.111 257.732C556.715 257.949 556.27 258.062 555.818 258.059ZM555.944 246.531C555.561 246.528 555.183 246.621 554.846 246.802L546.512 251.613C546.249 251.765 546.093 251.959 546.093 252.132C546.103 252.21 546.133 252.283 546.18 252.346C546.227 252.409 546.289 252.458 546.361 252.49L554.998 257.479C555.475 257.756 556.353 257.714 556.911 257.391L565.245 252.579C565.509 252.428 565.664 252.234 565.664 252.062C565.654 251.985 565.624 251.911 565.578 251.848C565.531 251.785 565.469 251.735 565.397 251.703L556.76 246.714C556.508 246.585 556.227 246.522 555.944 246.531Z" fill="url(#paint34_radial_342_2611)"/>
<path d="M555.578 253.757L553.01 252.274C552.848 252.182 552.87 252.019 553.056 251.911L555.534 250.48C555.63 250.427 555.736 250.397 555.846 250.393C555.955 250.388 556.063 250.409 556.163 250.454L558.731 251.937C558.893 252.031 558.871 252.192 558.685 252.3L556.207 253.731C556.112 253.785 556.005 253.815 555.896 253.819C555.786 253.824 555.678 253.802 555.578 253.757Z" fill="url(#paint35_linear_342_2611)"/>
<path opacity="0.07" d="M453.591 351.481L425.124 335.046L456.643 317.207L485.11 333.643L453.591 351.481Z" fill="url(#paint36_linear_342_2611)"/>
<path d="M460.014 318.524C460.014 318.468 460.014 318.412 460.014 318.358V313.713H453.255L431.596 301.208C430.199 300.41 427.755 300.504 426.14 301.436L404.873 313.713H398.126V318.534C398.088 319.081 398.396 319.608 399.066 319.995L426.544 335.86C427.94 336.658 430.383 336.564 431.998 335.632L458.691 320.222C459.531 319.737 459.98 319.125 460.022 318.534L460.014 318.524Z" fill="#DBDEFF"/>
<path d="M426.533 331.038L399.056 315.175C397.659 314.367 397.833 312.958 399.455 312.026L426.148 296.614C427.763 295.682 430.205 295.581 431.604 296.389L459.08 312.252C460.477 313.06 460.303 314.469 458.681 315.401L431.987 330.813C430.373 331.745 427.932 331.847 426.533 331.038Z" fill="white"/>
<path style="mix-blend-mode:darken" opacity="0.6" d="M449.836 312.476V297.934H408.304V312.599C408.278 312.966 408.484 313.32 408.935 313.581L427.376 324.228C428.314 324.77 429.954 324.703 431.038 324.076L448.952 313.733C449.565 313.374 449.868 312.909 449.836 312.476Z" fill="url(#paint37_linear_342_2611)"/>
<path d="M427.365 309.562L408.924 298.915C407.986 298.372 408.104 297.426 409.187 296.8L427.102 286.457C428.186 285.832 429.824 285.764 430.764 286.305L449.205 296.954C450.143 297.494 450.025 298.44 448.942 299.067L431.027 309.41C429.944 310.033 428.303 310.103 427.365 309.562Z" fill="white"/>
<path d="M460.013 295.523V315.571C460.017 315.626 460.017 315.681 460.013 315.736V315.748C459.97 316.337 459.519 316.946 458.68 317.434L431.989 332.845C431.089 333.337 430.082 333.601 429.056 333.615C428.182 333.66 427.311 333.473 426.533 333.072L399.056 317.217C398.385 316.83 398.076 316.303 398.118 315.758V295.523H404.877L406.412 294.637L426.142 283.244C427.759 282.312 430.199 282.212 431.596 283.018L453.256 295.523H460.013Z" fill="#F2F3FF"/>
<path d="M429.058 333.613C428.184 333.658 427.313 333.471 426.535 333.07L399.056 317.217C398.385 316.83 398.076 316.303 398.118 315.758V295.523H404.877L406.412 294.637L429.066 313.395L429.058 333.613Z" fill="#F5F6FF"/>
<path d="M426.533 312.848L399.056 296.985C397.659 296.177 397.833 294.768 399.455 293.834L426.148 278.424C427.763 277.492 430.205 277.391 431.604 278.199L459.072 294.068C460.469 294.876 460.295 296.285 458.673 297.217L431.987 312.627C430.373 313.555 427.932 313.655 426.533 312.848Z" fill="white"/>
<path d="M429.227 278.489C429.904 278.466 430.575 278.615 431.179 278.922L458.656 294.785C458.856 294.898 459.181 295.134 459.181 295.429C459.181 295.687 458.942 296.098 458.263 296.489L431.57 311.901C430.751 312.343 429.833 312.57 428.902 312.559C428.225 312.582 427.554 312.433 426.95 312.126L399.473 296.263C399.273 296.15 398.946 295.914 398.946 295.617C398.946 295.361 399.188 294.948 399.864 294.557L426.557 279.147C427.377 278.705 428.296 278.478 429.227 278.489ZM429.227 277.654C428.149 277.644 427.087 277.909 426.14 278.425L399.447 293.835C397.835 294.769 397.651 296.178 399.048 296.986L426.525 312.849C427.255 313.229 428.071 313.417 428.894 313.394C429.971 313.403 431.033 313.138 431.979 312.623L458.672 297.211C460.287 296.279 460.468 294.87 459.072 294.062L431.594 278.199C430.864 277.818 430.048 277.63 429.225 277.654H429.227Z" fill="white"/>
<path d="M429.004 298.412C428.649 298.422 428.297 298.339 427.984 298.173L419.347 293.184C419.213 293.12 419.099 293.021 419.017 292.898C418.936 292.775 418.889 292.631 418.882 292.483C418.882 292.162 419.107 291.847 419.498 291.621L427.832 286.81C428.523 286.411 429.538 286.373 430.143 286.722L438.782 291.711C438.915 291.775 439.029 291.874 439.111 291.997C439.193 292.121 439.24 292.264 439.247 292.412C439.247 292.735 439.021 293.048 438.63 293.274L430.297 298.085C429.901 298.303 429.456 298.416 429.004 298.412ZM429.129 286.884C428.746 286.88 428.369 286.973 428.032 287.155L419.698 291.967C419.435 292.118 419.279 292.312 419.279 292.485C419.289 292.563 419.319 292.636 419.365 292.698C419.412 292.761 419.473 292.811 419.544 292.843L428.183 297.832C428.66 298.107 429.536 298.067 430.097 297.744L438.437 292.93C438.698 292.779 438.856 292.585 438.856 292.412C438.846 292.334 438.816 292.26 438.769 292.198C438.722 292.135 438.66 292.086 438.588 292.054L429.952 287.065C429.698 286.935 429.414 286.873 429.129 286.884Z" fill="url(#paint38_radial_342_2611)"/>
<path d="M428.772 294.1L426.204 292.617C426.042 292.523 426.062 292.362 426.25 292.254L428.728 290.823C428.823 290.77 428.93 290.739 429.039 290.735C429.147 290.73 429.256 290.752 429.355 290.797L431.925 292.28C432.085 292.374 432.065 292.535 431.879 292.643L429.401 294.074C429.305 294.127 429.199 294.158 429.09 294.162C428.98 294.167 428.872 294.145 428.772 294.1Z" fill="url(#paint39_linear_342_2611)"/>
<path d="M420.38 315.181L401.454 304.245C400.762 303.846 400.201 302.773 400.201 301.851C400.201 300.927 400.762 300.504 401.454 300.903L420.38 311.831C421.073 312.23 421.636 313.303 421.636 314.225C421.636 315.155 421.075 315.58 420.38 315.181Z" fill="url(#paint40_linear_342_2611)"/>
<path d="M420.38 321.262L401.454 310.334C400.762 309.935 400.201 308.861 400.201 307.939C400.201 307.017 400.762 306.592 401.454 306.991L420.38 317.919C421.073 318.318 421.636 319.392 421.636 320.314C421.636 321.238 421.075 321.661 420.38 321.262Z" fill="url(#paint41_linear_342_2611)"/>
<path d="M420.38 327.342L401.454 316.419C400.762 316.019 400.201 314.946 400.201 314.024C400.201 313.1 400.762 312.675 401.454 313.076L420.38 324.002C421.073 324.401 421.636 325.475 421.636 326.397C421.636 327.318 421.075 327.744 420.38 327.342Z" fill="url(#paint42_linear_342_2611)"/>
<path d="M426.513 316.419C426.513 317.199 425.966 317.514 425.292 317.125C424.936 316.893 424.64 316.581 424.428 316.214C424.216 315.846 424.093 315.434 424.07 315.01C424.07 314.23 424.617 313.914 425.292 314.303C425.647 314.535 425.943 314.848 426.155 315.215C426.367 315.583 426.49 315.995 426.513 316.419Z" fill="url(#paint43_linear_342_2611)"/>
<path d="M426.513 322.118C426.513 322.896 425.966 323.211 425.292 322.822C424.936 322.59 424.64 322.278 424.428 321.911C424.216 321.543 424.093 321.131 424.07 320.707C424.07 319.929 424.617 319.611 425.292 320.003C425.647 320.234 425.943 320.546 426.156 320.914C426.368 321.282 426.49 321.694 426.513 322.118Z" fill="url(#paint44_linear_342_2611)"/>
<path d="M426.513 327.822C426.513 328.602 425.966 328.917 425.292 328.528C424.936 328.296 424.64 327.983 424.428 327.615C424.216 327.247 424.093 326.835 424.07 326.411C424.07 325.632 424.617 325.317 425.292 325.706C425.647 325.938 425.943 326.25 426.155 326.618C426.367 326.985 426.49 327.398 426.513 327.822Z" fill="url(#paint45_linear_342_2611)"/>
<path d="M454.062 316.449L436.038 326.856V314.968L454.062 304.561V316.449Z" fill="url(#paint46_linear_342_2611)"/>
<path opacity="0.07" d="M529.979 129.736L486.908 104.869L534.597 77.8809L577.666 102.748L529.979 129.736Z" fill="url(#paint47_linear_342_2611)"/>
<path d="M539.694 79.8724C539.7 79.7887 539.7 79.7046 539.694 79.6209V72.5944H529.468L496.708 53.6762C494.593 52.4549 490.899 52.6065 488.457 54.0174L456.279 72.5944H446.054V79.8884C445.994 80.7145 446.453 81.5127 447.475 82.0994L489.049 106.1C491.165 107.322 494.858 107.17 497.301 105.759L537.688 82.4427C538.957 81.7103 539.636 80.7824 539.702 79.8884L539.694 79.8724Z" fill="#DBDEFF"/>
<path d="M489.042 98.8089L447.467 74.8059C445.352 73.5846 445.618 71.4513 448.066 70.0404L488.453 46.7238C490.896 45.3149 494.59 45.1612 496.705 46.3825L538.279 70.3836C540.394 71.6049 540.129 73.7383 537.68 75.1491L497.294 98.4657C494.851 99.8766 491.157 100.03 489.042 98.8089Z" fill="white"/>
<path style="mix-blend-mode:darken" opacity="0.6" d="M524.296 70.7206V48.7212H461.445V70.9102C461.405 71.465 461.716 71.9999 462.399 72.393L490.301 88.5034C491.72 89.3216 494.2 89.2198 495.839 88.2739L522.945 72.6244C523.887 72.0796 524.344 71.3772 524.296 70.7206Z" fill="url(#paint48_linear_342_2611)"/>
<path d="M490.3 66.3125L462.398 50.2061C460.977 49.3859 461.157 47.955 462.797 47.0131L489.903 31.3637C491.542 30.4158 494.022 30.314 495.441 31.1342L523.344 47.2426C524.764 48.0628 524.585 49.4936 522.944 50.4356L495.838 66.085C494.2 67.0309 491.719 67.1327 490.3 66.3125Z" fill="white"/>
<path d="M539.695 45.0711V75.4042C539.701 75.4879 539.701 75.5719 539.695 75.6556V75.6716C539.627 76.5656 538.947 77.4936 537.678 78.224L497.295 101.541C495.932 102.284 494.407 102.684 492.855 102.704C491.43 102.74 490.061 102.468 489.041 101.884L447.467 77.8808C446.451 77.2941 445.984 76.4998 446.048 75.6716V45.0711H456.273L458.596 43.73L488.448 26.4941C490.893 25.0852 494.589 24.9335 496.702 26.1548L529.474 45.0711H539.695Z" fill="#F2F3FF"/>
<path d="M492.87 102.702H492.855C491.43 102.738 490.061 102.466 489.041 101.882L447.467 77.8787C446.451 77.292 445.984 76.4978 446.048 75.6696V45.0711H456.273L458.596 43.73L492.873 72.1094L492.87 102.702Z" fill="#F5F6FF"/>
<path d="M489.042 71.2855L447.467 47.2845C445.352 46.0632 445.618 43.9299 448.066 42.519L488.453 19.2025C490.896 17.7916 494.59 17.6399 496.705 18.8612L538.279 42.8623C540.394 44.0836 540.129 46.2169 537.68 47.6277L497.294 70.9443C494.851 72.3572 491.157 72.5068 489.042 71.2855Z" fill="white"/>
<path d="M493.116 19.2984C494.29 19.2984 495.337 19.5318 496.07 19.9529L537.642 43.956C537.941 44.1276 538.44 44.4828 538.44 44.9318C538.44 45.3189 538.075 45.9436 537.043 46.5283L496.658 69.8449C495.419 70.5146 494.03 70.858 492.621 70.8427C491.448 70.8427 490.4 70.6111 489.668 70.1881L448.093 46.1851C447.796 46.0135 447.295 45.6582 447.295 45.2092C447.295 44.8221 447.66 44.1974 448.692 43.6127L489.079 20.2962C490.318 19.6265 491.708 19.2831 493.116 19.2984ZM493.116 18.0371C491.496 18.0371 489.784 18.4363 488.449 19.2026L448.062 42.5191C445.619 43.93 445.354 46.0633 447.463 47.2846L489.037 71.2857C489.995 71.8404 491.276 72.1119 492.629 72.1119C494.25 72.1119 495.962 71.7127 497.297 70.9444L537.684 47.6279C540.127 46.217 540.392 44.0837 538.283 42.8624L496.708 18.8614C495.75 18.3066 494.467 18.0371 493.116 18.0371Z" fill="white"/>
<path d="M492.779 49.4435C492.242 49.4581 491.711 49.3336 491.236 49.0823L478.167 41.5389C477.714 41.2755 477.465 40.8983 477.465 40.4773C477.465 39.9903 477.804 39.5154 478.397 39.1721L491.007 31.8922C492.051 31.2935 493.587 31.2316 494.503 31.7605L507.572 39.3058C508.025 39.5672 508.275 39.9445 508.275 40.3675C508.275 40.8525 507.936 41.3294 507.343 41.6706L494.733 48.9506C494.134 49.2792 493.462 49.449 492.779 49.4435ZM491.536 48.5634C492.26 48.9805 493.585 48.9206 494.433 48.4297L507.042 41.1517C507.441 40.9223 507.674 40.629 507.674 40.3675C507.66 40.2504 507.615 40.139 507.546 40.0439C507.476 39.9489 507.383 39.8734 507.275 39.8247L494.208 32.2793C493.483 31.8622 492.158 31.9241 491.31 32.413L478.702 39.693C478.303 39.9204 478.069 40.2138 478.069 40.4773C478.084 40.5941 478.128 40.7052 478.198 40.8C478.268 40.8947 478.361 40.9698 478.468 41.0181L491.536 48.5634Z" fill="url(#paint49_radial_342_2611)"/>
<path d="M492.428 42.9201L488.543 40.677C488.299 40.5353 488.329 40.2898 488.61 40.1282L492.36 37.9629C492.504 37.8818 492.666 37.836 492.831 37.829C492.997 37.8221 493.161 37.8543 493.312 37.9231L497.197 40.1661C497.441 40.3078 497.411 40.5532 497.13 40.7149L493.38 42.8801C493.236 42.9612 493.074 43.0071 492.909 43.014C492.743 43.0209 492.579 42.9888 492.428 42.9201Z" fill="url(#paint50_linear_342_2611)"/>
<path d="M479.732 74.8154L451.097 58.282C450.049 57.6833 449.199 56.0528 449.199 54.6559C449.199 53.259 450.049 52.6164 451.097 53.2211L479.732 69.7626C480.78 70.3613 481.63 71.9917 481.63 73.3886C481.63 74.7775 480.78 75.4201 479.732 74.8154Z" fill="url(#paint51_linear_342_2611)"/>
<path d="M479.732 84.0155L451.097 67.484C450.049 66.8854 449.199 65.255 449.199 63.8581C449.199 62.4611 450.049 61.8186 451.097 62.4232L479.732 78.9547C480.78 79.5534 481.63 81.1838 481.63 82.5807C481.63 83.9796 480.78 84.6202 479.732 84.0155Z" fill="url(#paint52_linear_342_2611)"/>
<path d="M479.732 93.2168L451.097 76.6834C450.049 76.0847 449.199 74.4562 449.199 73.0573C449.199 71.6604 450.049 71.0178 451.097 71.6225L479.732 88.156C480.78 88.7547 481.63 90.3851 481.63 91.782C481.63 93.1789 480.78 93.8215 479.732 93.2168Z" fill="url(#paint53_linear_342_2611)"/>
<path d="M489.009 76.6795C489.009 77.8589 488.183 78.3358 487.161 77.7471C486.14 77.1584 485.313 75.7256 485.313 74.5542C485.313 73.3827 486.142 72.8979 487.161 73.4866C488.181 74.0753 489.009 75.5021 489.009 76.6795Z" fill="url(#paint54_linear_342_2611)"/>
<path d="M489.009 85.3105C489.009 86.4899 488.183 86.9668 487.161 86.3781C486.14 85.7894 485.313 84.3546 485.313 83.1852C485.313 82.0157 486.142 81.5289 487.161 82.1176C488.181 82.7063 489.009 84.1311 489.009 85.3105Z" fill="url(#paint55_linear_342_2611)"/>
<path d="M489.009 93.9416C489.009 95.119 488.183 95.5979 487.161 95.0072C486.14 94.4165 485.313 92.9856 485.313 91.8142C485.313 90.6428 486.142 90.1579 487.161 90.7486C488.181 91.3393 489.009 92.7622 489.009 93.9416Z" fill="url(#paint56_linear_342_2611)"/>
<path d="M530.692 76.7354L503.422 92.4787V74.4904L530.692 58.7471V76.7354Z" fill="url(#paint57_linear_342_2611)"/>
<path opacity="0.07" d="M121.78 159.968L93.3125 143.532L124.831 125.693L153.298 142.129L121.78 159.968Z" fill="url(#paint58_linear_342_2611)"/>
<path d="M128.202 127.011C128.206 126.956 128.206 126.9 128.202 126.845V122.199H121.443L99.7844 109.695C98.3874 108.897 95.9448 108.991 94.3304 109.922L73.0633 122.199H66.3042V127.021C66.2643 127.567 66.5717 128.094 67.2422 128.482L94.7196 144.347C96.1165 145.145 98.5611 145.051 100.175 144.119L126.867 128.709C127.707 128.224 128.156 127.611 128.198 127.021L128.202 127.011Z" fill="#DBDEFF"/>
<path d="M94.7213 139.525L67.244 123.662C65.847 122.853 66.0226 121.445 67.6431 120.513L94.3362 105.101C95.9507 104.169 98.3912 104.067 99.7901 104.875L127.268 120.738C128.665 121.546 128.489 122.955 126.868 123.887L100.183 139.299C98.5629 140.231 96.1202 140.333 94.7213 139.525Z" fill="white"/>
<path style="mix-blend-mode:darken" opacity="0.6" d="M118.024 120.962V106.42H76.4817V121.086C76.4557 121.453 76.6613 121.806 77.1123 122.067L95.5536 132.714C96.4935 133.257 98.1319 133.187 99.2155 132.562L117.13 122.219C117.745 121.86 118.056 121.395 118.024 120.962Z" fill="url(#paint59_linear_342_2611)"/>
<path d="M95.5539 118.056L77.1126 107.41C76.1747 106.867 76.2924 105.921 77.376 105.294L95.2905 94.9513C96.3741 94.3267 98.0145 94.2588 98.9524 94.7996L117.394 105.448C118.332 105.989 118.214 106.935 117.13 107.562L99.2158 117.905C98.1322 118.521 96.4938 118.589 95.5539 118.056Z" fill="white"/>
<path d="M128.202 104.009V124.057C128.206 124.112 128.206 124.167 128.202 124.222V124.234C128.158 124.823 127.707 125.432 126.869 125.921L100.184 141.331C99.2832 141.823 98.2761 142.087 97.25 142.101C96.3767 142.147 95.5069 141.959 94.7296 141.558L67.2503 125.693C66.5798 125.306 66.2704 124.779 66.3123 124.234V104.009H73.0715L74.6061 103.123L94.3366 91.7302C95.953 90.7983 98.3936 90.6985 99.7925 91.5047L121.451 104.009H128.202Z" fill="#F2F3FF"/>
<path d="M97.254 142.099C96.3806 142.145 95.5108 141.957 94.7335 141.556L67.2542 125.691C66.5837 125.304 66.2743 124.777 66.3162 124.233V104.009H73.0754L74.61 103.123L97.264 121.882L97.254 142.099Z" fill="#F5F6FF"/>
<path d="M94.7213 121.335L67.244 105.472C65.847 104.674 66.0226 103.255 67.6431 102.321L94.3362 86.9108C95.9507 85.9788 98.3912 85.877 99.7901 86.6852L127.268 102.548C128.665 103.356 128.489 104.765 126.868 105.697L100.183 121.109C98.5629 122.047 96.1202 122.141 94.7213 121.335Z" fill="#F2F7FF"/>
<path d="M97.4154 86.973C98.0922 86.9517 98.7635 87.1012 99.3672 87.4079L126.845 103.271C127.044 103.385 127.371 103.62 127.371 103.916C127.371 104.173 127.13 104.584 126.451 104.975L99.7602 120.387C98.9404 120.83 98.0216 121.056 97.0901 121.046C96.4134 121.069 95.742 120.92 95.1385 120.613L67.6551 104.75C67.4555 104.636 67.1282 104.4 67.1282 104.103C67.1282 103.848 67.3698 103.435 68.0483 103.043L94.7413 87.6334C95.5606 87.1914 96.4786 86.9642 97.4095 86.973H97.4154ZM97.4154 86.1407C96.3382 86.1305 95.2762 86.3957 94.3302 86.9111L67.6372 102.321C66.0227 103.255 65.8411 104.664 67.238 105.472L94.7154 121.335C95.4458 121.715 96.2611 121.903 97.0842 121.88C98.1619 121.889 99.2243 121.624 100.171 121.11L126.862 105.698C128.477 104.766 128.658 103.357 127.262 102.549L99.7842 86.6855C99.0542 86.3043 98.2386 86.1168 97.4154 86.1407Z" fill="white"/>
<path d="M97.1901 106.899C96.8358 106.909 96.485 106.827 96.1723 106.66L87.5333 101.671C87.3997 101.607 87.2859 101.508 87.204 101.385C87.1221 101.261 87.0752 101.118 87.0684 100.97C87.0684 100.649 87.2939 100.334 87.6851 100.108L96.0186 95.2968C96.7091 94.8977 97.7249 94.8597 98.3316 95.2089L106.969 100.198C107.102 100.262 107.216 100.361 107.298 100.484C107.379 100.607 107.426 100.751 107.433 100.898C107.433 101.222 107.208 101.535 106.817 101.76L98.4832 106.572C98.0874 106.79 97.6421 106.903 97.1901 106.899ZM97.3158 95.3705C96.9328 95.3665 96.5551 95.46 96.2182 95.642L87.8846 100.453C87.6232 100.605 87.4655 100.799 87.4655 100.972C87.4757 101.05 87.5056 101.123 87.5524 101.186C87.5993 101.248 87.6614 101.298 87.7329 101.329L96.3699 106.318C96.8469 106.594 97.7249 106.554 98.2837 106.231L106.617 101.419C106.881 101.268 107.036 101.074 107.036 100.9C107.026 100.823 106.996 100.749 106.949 100.687C106.903 100.624 106.84 100.575 106.769 100.543L98.132 95.5542C97.8806 95.4249 97.6004 95.3617 97.3178 95.3705H97.3158Z" fill="url(#paint60_radial_342_2611)"/>
<path d="M96.9602 102.586L94.3919 101.104C94.2322 101.01 94.2522 100.848 94.4378 100.74L96.9163 99.3096C97.0116 99.2561 97.1183 99.2258 97.2275 99.2213C97.3367 99.2168 97.4455 99.2382 97.5449 99.2837L100.113 100.766C100.275 100.86 100.253 101.022 100.067 101.13L97.5888 102.56C97.4935 102.614 97.3868 102.644 97.2776 102.649C97.1684 102.653 97.0597 102.632 96.9602 102.586Z" fill="url(#paint61_linear_342_2611)"/>
<path d="M88.5689 123.668L69.6507 112.74C68.9582 112.341 68.3975 111.267 68.3975 110.345C68.3975 109.421 68.9582 108.998 69.6507 109.397L88.5769 120.325C89.2713 120.724 89.8321 121.798 89.8321 122.72C89.8241 123.644 89.2633 124.067 88.5689 123.668Z" fill="url(#paint62_linear_342_2611)"/>
<path d="M88.5689 129.749L69.6507 118.821C68.9582 118.422 68.3975 117.348 68.3975 116.426C68.3975 115.504 68.9582 115.079 69.6507 115.478L88.5769 126.406C89.2713 126.805 89.8321 127.879 89.8321 128.801C89.8241 129.725 89.2633 130.148 88.5689 129.749Z" fill="url(#paint63_linear_342_2611)"/>
<path d="M88.5689 135.829L69.6507 124.903C68.9582 124.504 68.3975 123.43 68.3975 122.508C68.3975 121.584 68.9582 121.159 69.6507 121.56L88.5769 132.486C89.2713 132.885 89.8321 133.959 89.8321 134.881C89.8241 135.805 89.2633 136.23 88.5689 135.829Z" fill="url(#paint64_linear_342_2611)"/>
<path d="M94.7013 124.899C94.7013 125.679 94.1546 125.995 93.4801 125.606C93.1246 125.374 92.8288 125.062 92.6166 124.694C92.4044 124.326 92.2818 123.914 92.2588 123.49C92.2588 122.71 92.8056 122.395 93.4801 122.784C93.8356 123.016 94.1314 123.328 94.3436 123.696C94.5558 124.063 94.6783 124.475 94.7013 124.899Z" fill="url(#paint65_linear_342_2611)"/>
<path d="M94.7013 130.605C94.7013 131.383 94.1546 131.698 93.4801 131.309C93.1246 131.077 92.8288 130.765 92.6166 130.398C92.4044 130.03 92.2818 129.618 92.2588 129.194C92.2588 128.416 92.8056 128.098 93.4801 128.489C93.8358 128.721 94.1318 129.033 94.344 129.401C94.5563 129.768 94.6787 130.181 94.7013 130.605Z" fill="url(#paint66_linear_342_2611)"/>
<path d="M94.7013 136.308C94.7013 137.086 94.1546 137.404 93.4801 137.014C93.1246 136.782 92.8287 136.469 92.6165 136.102C92.4043 135.734 92.2818 135.321 92.2588 134.897C92.2588 134.119 92.8056 133.803 93.4801 134.193C93.8356 134.424 94.1314 134.737 94.3436 135.104C94.5558 135.472 94.6783 135.884 94.7013 136.308Z" fill="url(#paint67_linear_342_2611)"/>
<path d="M122.251 124.937L104.229 135.342V123.452L122.251 113.047V124.937Z" fill="url(#paint68_linear_342_2611)"/>
<path d="M511.518 158.036C511.326 158.036 511.139 157.985 510.973 157.89L509.274 156.908C509.146 156.84 509.032 156.746 508.94 156.632C508.848 156.518 508.78 156.387 508.74 156.247C508.7 156.106 508.689 155.959 508.707 155.814C508.724 155.669 508.771 155.529 508.844 155.402C508.917 155.276 509.015 155.165 509.132 155.077C509.249 154.989 509.382 154.926 509.524 154.89C509.665 154.855 509.813 154.848 509.957 154.871C510.102 154.894 510.24 154.945 510.364 155.023L512.062 156.002C512.27 156.122 512.433 156.307 512.525 156.529C512.617 156.751 512.633 156.997 512.57 157.228C512.508 157.46 512.371 157.665 512.181 157.811C511.991 157.957 511.757 158.036 511.518 158.036ZM433.416 155.51C433.176 155.509 432.944 155.43 432.754 155.284C432.564 155.139 432.427 154.934 432.365 154.703C432.302 154.472 432.318 154.227 432.409 154.005C432.5 153.784 432.662 153.598 432.869 153.478L434.567 152.496C434.691 152.422 434.829 152.373 434.972 152.353C435.114 152.332 435.26 152.341 435.4 152.377C435.539 152.413 435.671 152.477 435.786 152.564C435.9 152.651 435.997 152.761 436.069 152.886C436.141 153.011 436.188 153.149 436.207 153.292C436.225 153.435 436.215 153.58 436.177 153.72C436.139 153.859 436.073 153.989 435.984 154.103C435.895 154.217 435.785 154.311 435.659 154.382L433.961 155.364C433.795 155.46 433.607 155.51 433.416 155.51ZM503.026 153.133C502.835 153.132 502.647 153.082 502.481 152.987L500.783 152.005C500.654 151.936 500.541 151.842 500.449 151.729C500.357 151.615 500.289 151.484 500.249 151.343C500.209 151.203 500.197 151.056 500.215 150.911C500.233 150.766 500.28 150.626 500.353 150.499C500.426 150.372 500.524 150.262 500.641 150.174C500.757 150.086 500.891 150.022 501.032 149.987C501.174 149.952 501.322 149.945 501.466 149.968C501.61 149.991 501.749 150.042 501.873 150.119L503.571 151.099C503.779 151.219 503.941 151.404 504.033 151.626C504.125 151.848 504.141 152.093 504.079 152.325C504.017 152.557 503.88 152.762 503.69 152.908C503.499 153.054 503.266 153.133 503.026 153.133ZM441.903 150.6C441.663 150.601 441.429 150.522 441.239 150.376C441.048 150.23 440.911 150.026 440.848 149.794C440.786 149.562 440.802 149.316 440.894 149.094C440.986 148.872 441.148 148.687 441.356 148.567L443.054 147.585C443.179 147.508 443.317 147.456 443.461 147.433C443.606 147.411 443.753 147.417 443.895 147.453C444.037 147.488 444.17 147.552 444.287 147.64C444.403 147.728 444.501 147.838 444.574 147.965C444.647 148.091 444.694 148.231 444.712 148.376C444.73 148.521 444.719 148.668 444.678 148.809C444.638 148.949 444.57 149.08 444.479 149.194C444.387 149.308 444.273 149.402 444.144 149.471L442.448 150.453C442.282 150.549 442.095 150.6 441.903 150.6ZM494.535 148.23C494.344 148.23 494.156 148.18 493.99 148.084L492.292 147.104C492.168 147.033 492.059 146.937 491.972 146.824C491.885 146.71 491.821 146.581 491.784 146.442C491.747 146.304 491.738 146.16 491.756 146.018C491.775 145.876 491.821 145.739 491.893 145.615C491.964 145.491 492.06 145.383 492.173 145.296C492.287 145.208 492.416 145.145 492.554 145.108C492.693 145.07 492.837 145.061 492.979 145.08C493.121 145.098 493.258 145.145 493.382 145.216L495.08 146.196C495.288 146.316 495.45 146.501 495.542 146.723C495.634 146.944 495.65 147.19 495.588 147.422C495.526 147.654 495.389 147.859 495.199 148.005C495.008 148.151 494.775 148.23 494.535 148.23ZM450.39 145.689C450.15 145.69 449.917 145.611 449.726 145.465C449.535 145.319 449.398 145.114 449.336 144.883C449.273 144.651 449.289 144.405 449.381 144.183C449.473 143.961 449.636 143.776 449.844 143.656L451.542 142.674C451.792 142.529 452.09 142.49 452.369 142.565C452.648 142.64 452.886 142.823 453.031 143.073C453.175 143.323 453.214 143.621 453.139 143.9C453.064 144.179 452.882 144.417 452.631 144.562L450.935 145.544C450.769 145.639 450.582 145.689 450.39 145.689ZM486.042 143.328C485.851 143.328 485.664 143.277 485.499 143.181L483.801 142.201C483.55 142.056 483.368 141.818 483.293 141.539C483.218 141.26 483.257 140.962 483.402 140.712C483.546 140.462 483.784 140.279 484.063 140.204C484.342 140.129 484.64 140.169 484.89 140.313L486.589 141.295C486.797 141.415 486.959 141.6 487.051 141.822C487.143 142.044 487.159 142.29 487.096 142.522C487.034 142.754 486.897 142.958 486.706 143.104C486.515 143.25 486.282 143.329 486.042 143.328ZM458.878 140.778C458.638 140.778 458.405 140.699 458.215 140.553C458.025 140.407 457.889 140.203 457.826 139.972C457.764 139.74 457.78 139.495 457.871 139.274C457.962 139.052 458.124 138.867 458.331 138.747L460.029 137.765C460.153 137.687 460.292 137.636 460.436 137.613C460.58 137.59 460.728 137.597 460.869 137.632C461.011 137.668 461.144 137.731 461.261 137.819C461.378 137.907 461.476 138.018 461.549 138.144C461.622 138.271 461.669 138.411 461.687 138.556C461.705 138.701 461.693 138.848 461.653 138.989C461.613 139.129 461.545 139.26 461.453 139.374C461.361 139.488 461.248 139.582 461.119 139.651L459.422 140.632C459.257 140.728 459.069 140.779 458.878 140.778ZM477.55 138.425C477.36 138.425 477.173 138.374 477.008 138.28L475.309 137.298C475.18 137.229 475.067 137.135 474.975 137.021C474.883 136.907 474.815 136.776 474.775 136.636C474.735 136.495 474.724 136.348 474.741 136.203C474.759 136.058 474.806 135.918 474.879 135.792C474.953 135.665 475.05 135.554 475.167 135.466C475.284 135.379 475.417 135.315 475.559 135.279C475.701 135.244 475.848 135.238 475.992 135.26C476.137 135.283 476.275 135.335 476.399 135.412L478.097 136.392C478.305 136.512 478.468 136.697 478.56 136.919C478.652 137.141 478.668 137.387 478.605 137.619C478.543 137.85 478.406 138.055 478.215 138.201C478.024 138.347 477.791 138.426 477.55 138.425ZM467.373 135.869C467.133 135.869 466.899 135.791 466.709 135.645C466.518 135.499 466.381 135.294 466.318 135.062C466.256 134.83 466.272 134.584 466.364 134.362C466.455 134.141 466.618 133.955 466.826 133.835L468.522 132.853C468.646 132.779 468.784 132.731 468.927 132.71C469.069 132.69 469.215 132.698 469.355 132.734C469.495 132.77 469.626 132.834 469.741 132.921C469.855 133.009 469.952 133.118 470.024 133.243C470.097 133.368 470.143 133.506 470.162 133.649C470.18 133.792 470.17 133.938 470.132 134.077C470.094 134.216 470.028 134.346 469.94 134.46C469.851 134.574 469.74 134.669 469.614 134.739L467.918 135.723C467.752 135.818 467.564 135.868 467.373 135.869Z" fill="url(#paint69_linear_342_2611)"/>
<path d="M455.913 223.224C455.913 224.984 454.624 226.838 452.121 228.289L290.268 321.735C285.678 324.385 278.736 324.672 274.76 322.38L110.672 227.643C110.12 227.331 109.614 226.942 109.17 226.489C108.314 225.597 107.926 224.567 107.996 223.514C108.108 221.827 109.393 220.073 111.788 218.688L254.198 136.47L273.643 125.242C278.233 122.59 285.175 122.303 289.151 124.6L309.705 136.47L453.233 219.335C455.029 220.38 455.913 221.769 455.913 223.224Z" fill="#102E6D"/>
<path d="M453.964 226.962C453.73 226.784 453.484 226.622 453.228 226.477L289.14 131.74C285.165 129.447 278.222 129.744 273.632 132.383L111.775 225.83C111.113 226.207 110.493 226.653 109.926 227.161C106.774 224.821 107.495 221.175 111.775 218.692L273.632 125.24C278.222 122.59 285.165 122.301 289.14 124.598L453.228 219.333C456.581 221.274 456.75 224.421 453.964 226.962Z" fill="#0079F2"/>
<path d="M455.898 188.7C455.912 188.525 455.912 188.349 455.898 188.173V181.338H447.671L289.14 89.8104C285.165 87.5154 278.222 87.8048 273.633 90.4549L116.216 181.338H108.104V188.024C107.647 189.82 108.477 191.592 110.664 192.855L274.752 287.59C278.725 289.887 285.67 289.598 290.26 286.947L452.115 193.502C454.5 192.125 455.777 190.381 455.906 188.7H455.898Z" fill="url(#paint70_linear_342_2611)"/>
<path d="M274.752 280.763L110.664 186.026C106.689 183.731 107.188 179.722 111.778 177.072L273.633 83.6262C278.222 80.976 285.165 80.6886 289.14 82.9836L453.228 177.725C457.204 180.019 456.705 184.029 452.115 186.679L290.26 280.127C285.67 282.769 278.725 283.058 274.752 280.763Z" fill="url(#paint71_linear_342_2611)"/>
<path d="M281.511 270.368C279.986 270.368 278.9 270.053 278.436 269.785L130.897 184.603C130.417 184.326 130.018 183.928 129.741 183.448C129.464 182.969 129.318 182.424 129.318 181.87C129.318 181.316 129.464 180.772 129.741 180.292C130.018 179.812 130.417 179.414 130.897 179.137L277.374 94.5699C278.665 93.8236 280.537 93.3726 282.379 93.3726C283.903 93.3726 284.989 93.6859 285.454 93.9553L432.992 179.135C433.472 179.413 433.87 179.811 434.147 180.291C434.424 180.77 434.569 181.315 434.569 181.868C434.569 182.422 434.424 182.966 434.147 183.446C433.87 183.926 433.472 184.324 432.992 184.601L286.516 269.171C285.225 269.921 283.353 270.368 281.511 270.368ZM282.381 95.442C280.928 95.442 279.369 95.8011 278.406 96.3559L131.929 180.925C131.763 181.021 131.624 181.159 131.528 181.325C131.432 181.491 131.382 181.679 131.382 181.871C131.382 182.063 131.432 182.252 131.528 182.418C131.624 182.584 131.763 182.722 131.929 182.817L279.465 267.997C279.465 267.997 280.11 268.305 281.511 268.305C282.962 268.305 284.522 267.945 285.484 267.389L431.961 182.819C432.127 182.723 432.265 182.586 432.361 182.42C432.457 182.254 432.508 182.065 432.508 181.873C432.508 181.682 432.457 181.493 432.361 181.327C432.265 181.161 432.127 181.023 431.961 180.927L284.422 95.7473C284.422 95.7473 283.778 95.442 282.381 95.442Z" fill="url(#paint72_linear_342_2611)"/>
<path style="mix-blend-mode:screen" d="M455.913 136.474V223.224C455.913 224.985 454.624 226.838 452.121 228.289L290.268 321.735C285.678 324.385 278.736 324.673 274.76 322.38L110.672 227.643C110.12 227.331 109.614 226.942 109.17 226.489C108.836 226.135 108.553 225.736 108.33 225.304C108.066 224.733 107.954 224.103 108.004 223.476L107.988 136.468L455.913 136.474Z" fill="url(#paint73_linear_342_2611)"/>
<path style="mix-blend-mode:screen" d="M455.912 136.474V223.224C455.912 224.984 454.623 226.838 452.12 228.289L290.267 321.735C285.677 324.385 278.735 324.672 274.76 322.38L110.672 227.643C110.119 227.331 109.613 226.942 109.169 226.489C108.709 226.032 108.361 225.475 108.153 224.861C108.018 224.417 107.962 223.953 107.987 223.49V136.474H455.912Z" fill="url(#paint74_linear_342_2611)"/>
<path d="M347.969 64.2308C316.472 57.0227 299.633 34.5703 294.674 26.8732C293.76 25.4564 292.425 24.6781 291.513 25.0492C286.552 27.0169 269.713 30.0263 238.217 0.864598C237.295 0.0104822 236.369 -0.189074 235.76 0.170134L235.728 0.190109L200.691 20.4394L212.567 41.1557L235.052 49.6749V79.3015C235.052 95.5816 240.677 114.586 250.992 132.636C259.202 147.004 270.851 163.542 286.55 177.688C290.831 181.544 295.359 184.16 299.639 185.246C302.316 185.931 305.037 186.432 307.783 186.745L296.955 197.122L299.488 201.885L334.325 181.752C334.619 181.587 334.909 181.418 335.197 181.247C345.512 175.11 351.138 162.6 351.138 146.324V68.7768C351.136 66.875 349.547 64.59 347.969 64.2308Z" fill="url(#paint75_linear_342_2611)"/>
<path d="M256.501 45.2789C251.541 47.2486 234.703 50.2579 203.206 21.0962C201.628 19.6354 200.039 20.0865 200.039 21.9883V99.5333C200.039 115.813 205.665 134.817 215.98 152.868C224.19 167.236 235.838 183.773 251.537 197.92C255.818 201.776 260.346 204.392 264.627 205.477C280.326 209.469 291.966 206.364 300.182 201.486C310.499 195.35 316.125 182.839 316.125 166.563V89.0084C316.125 87.1066 314.529 84.8177 312.958 84.4625C281.462 77.2544 264.623 54.8019 259.662 47.1049C258.75 45.688 257.415 44.9177 256.501 45.2789Z" fill="url(#paint76_linear_342_2611)"/>
<path style="mix-blend-mode:screen" d="M254.325 64.3166C250.657 65.7734 238.203 67.9985 214.906 46.4301C213.741 45.3505 212.565 45.6837 212.565 47.0906V104.444C212.565 116.486 216.726 130.541 224.355 143.891C230.426 154.512 239.043 166.749 250.653 177.218C253.82 180.071 257.169 182.007 260.336 182.805C271.946 185.751 280.561 183.462 286.634 179.85C294.263 175.312 298.424 166.06 298.424 154.019V96.6592C298.424 95.2623 297.249 93.5641 296.083 93.2967C272.787 87.9665 260.332 71.3611 256.664 65.6676C255.988 64.6199 255 64.0492 254.325 64.3166Z" fill="url(#paint77_linear_342_2611)"/>
<path style="mix-blend-mode:screen" d="M251.848 86.0129C249.653 86.885 242.194 88.208 228.245 75.3024C227.546 74.6559 226.848 74.8554 226.848 75.7016V110.046C226.848 117.256 229.338 125.671 233.908 133.666C237.544 140.026 242.703 147.354 249.655 153.622C251.551 155.33 253.557 156.489 255.453 156.97C262.405 158.732 267.564 157.369 271.2 155.2C275.77 152.482 278.26 146.942 278.26 139.732V105.388C278.26 104.546 277.556 103.534 276.863 103.375C262.914 100.182 255.456 90.2395 253.259 86.8291C252.846 86.1945 252.248 85.8532 251.848 86.0129Z" fill="url(#paint78_linear_342_2611)"/>
<defs>
<linearGradient id="paint0_linear_342_2611" x1="46.7431" y1="220.768" x2="62.215" y2="247.193" gradientUnits="userSpaceOnUse">
<stop/>
<stop offset="1" stop-color="white"/>
</linearGradient>
<radialGradient id="paint1_radial_342_2611" cx="0" cy="0" r="1" gradientUnits="userSpaceOnUse" gradientTransform="translate(29.8703 212.696) scale(18.2059)">
<stop stop-color="#B782FF"/>
<stop offset="0.16" stop-color="#B286FF"/>
<stop offset="0.36" stop-color="#A392FF"/>
<stop offset="0.58" stop-color="#8AA5FF"/>
<stop offset="0.81" stop-color="#67C0FF"/>
<stop offset="1" stop-color="#45DAFF"/>
</radialGradient>
<linearGradient id="paint2_linear_342_2611" x1="24.5596" y1="216.29" x2="33.6815" y2="210.117" gradientUnits="userSpaceOnUse">
<stop stop-color="#B782FF"/>
<stop offset="0.16" stop-color="#B286FF"/>
<stop offset="0.36" stop-color="#A392FF"/>
<stop offset="0.58" stop-color="#8AA5FF"/>
<stop offset="0.81" stop-color="#67C0FF"/>
<stop offset="1" stop-color="#45DAFF"/>
</linearGradient>
<linearGradient id="paint3_linear_342_2611" x1="223.106" y1="337.923" x2="238.576" y2="364.349" gradientUnits="userSpaceOnUse">
<stop/>
<stop offset="1" stop-color="white"/>
</linearGradient>
<radialGradient id="paint4_radial_342_2611" cx="0" cy="0" r="1" gradientUnits="userSpaceOnUse" gradientTransform="translate(206.232 329.851) scale(18.2058 18.2059)">
<stop stop-color="#B782FF"/>
<stop offset="0.16" stop-color="#B286FF"/>
<stop offset="0.36" stop-color="#A392FF"/>
<stop offset="0.58" stop-color="#8AA5FF"/>
<stop offset="0.81" stop-color="#67C0FF"/>
<stop offset="1" stop-color="#45DAFF"/>
</radialGradient>
<linearGradient id="paint5_linear_342_2611" x1="200.921" y1="333.445" x2="210.043" y2="327.271" gradientUnits="userSpaceOnUse">
<stop stop-color="#B782FF"/>
<stop offset="0.16" stop-color="#B286FF"/>
<stop offset="0.36" stop-color="#A392FF"/>
<stop offset="0.58" stop-color="#8AA5FF"/>
<stop offset="0.81" stop-color="#67C0FF"/>
<stop offset="1" stop-color="#45DAFF"/>
</linearGradient>
<linearGradient id="paint6_linear_342_2611" x1="553.426" y1="176.362" x2="568.896" y2="202.787" gradientUnits="userSpaceOnUse">
<stop/>
<stop offset="1" stop-color="white"/>
</linearGradient>
<radialGradient id="paint7_radial_342_2611" cx="0" cy="0" r="1" gradientUnits="userSpaceOnUse" gradientTransform="translate(536.551 168.289) scale(18.2058 18.2059)">
<stop stop-color="#B782FF"/>
<stop offset="0.16" stop-color="#B286FF"/>
<stop offset="0.36" stop-color="#A392FF"/>
<stop offset="0.58" stop-color="#8AA5FF"/>
<stop offset="0.81" stop-color="#67C0FF"/>
<stop offset="1" stop-color="#45DAFF"/>
</radialGradient>
<linearGradient id="paint8_linear_342_2611" x1="531.24" y1="171.883" x2="540.362" y2="165.709" gradientUnits="userSpaceOnUse">
<stop stop-color="#B782FF"/>
<stop offset="0.16" stop-color="#B286FF"/>
<stop offset="0.36" stop-color="#A392FF"/>
<stop offset="0.58" stop-color="#8AA5FF"/>
<stop offset="0.81" stop-color="#67C0FF"/>
<stop offset="1" stop-color="#45DAFF"/>
</linearGradient>
<linearGradient id="paint9_linear_342_2611" x1="443.961" y1="268.241" x2="516.237" y2="268.241" gradientUnits="userSpaceOnUse">
<stop stop-color="#5BEBC8"/>
<stop offset="0.37" stop-color="#2B69CE"/>
<stop offset="0.69" stop-color="#42A7CB"/>
<stop offset="1" stop-color="#58E2C8"/>
</linearGradient>
<linearGradient id="paint10_linear_342_2611" x1="381.786" y1="280.208" x2="402.772" y2="280.208" gradientUnits="userSpaceOnUse">
<stop stop-color="#5BEBC8"/>
<stop offset="0.37" stop-color="#2B69CE"/>
<stop offset="0.69" stop-color="#42A7CB"/>
<stop offset="1" stop-color="#58E2C8"/>
</linearGradient>
<linearGradient id="paint11_linear_342_2611" x1="117.312" y1="144.973" x2="138.297" y2="144.973" gradientUnits="userSpaceOnUse">
<stop stop-color="#5BEBC8"/>
<stop offset="0.37" stop-color="#2B69CE"/>
<stop offset="0.69" stop-color="#42A7CB"/>
<stop offset="1" stop-color="#58E2C8"/>
</linearGradient>
<linearGradient id="paint12_linear_342_2611" x1="104.276" y1="304.321" x2="134.116" y2="321.549" gradientUnits="userSpaceOnUse">
<stop stop-color="#5BEBC8"/>
<stop offset="0.37" stop-color="#2B69CE"/>
<stop offset="0.69" stop-color="#42A7CB"/>
<stop offset="1" stop-color="#58E2C8"/>
</linearGradient>
<linearGradient id="paint13_linear_342_2611" x1="118.277" y1="280.62" x2="146.148" y2="296.712" gradientUnits="userSpaceOnUse">
<stop stop-color="#5BEBC8"/>
<stop offset="0.37" stop-color="#2B69CE"/>
<stop offset="0.69" stop-color="#42A7CB"/>
<stop offset="1" stop-color="#58E2C8"/>
</linearGradient>
<linearGradient id="paint14_linear_342_2611" x1="131.8" y1="256.642" x2="161.64" y2="273.87" gradientUnits="userSpaceOnUse">
<stop stop-color="#5BEBC8"/>
<stop offset="0.37" stop-color="#2B69CE"/>
<stop offset="0.69" stop-color="#42A7CB"/>
<stop offset="1" stop-color="#58E2C8"/>
</linearGradient>
<linearGradient id="paint15_linear_342_2611" x1="226.812" y1="315.984" x2="234.736" y2="320.558" gradientUnits="userSpaceOnUse">
<stop stop-color="#5BEBC8"/>
<stop offset="0.37" stop-color="#2B69CE"/>
<stop offset="0.69" stop-color="#42A7CB"/>
<stop offset="1" stop-color="#58E2C8"/>
</linearGradient>
<linearGradient id="paint16_linear_342_2611" x1="230.488" y1="311.627" x2="235.886" y2="314.743" gradientUnits="userSpaceOnUse">
<stop stop-color="#5BEBC8"/>
<stop offset="0.37" stop-color="#2B69CE"/>
<stop offset="0.69" stop-color="#42A7CB"/>
<stop offset="1" stop-color="#58E2C8"/>
</linearGradient>
<linearGradient id="paint17_linear_342_2611" x1="232.422" y1="306.265" x2="240.345" y2="310.839" gradientUnits="userSpaceOnUse">
<stop stop-color="#5BEBC8"/>
<stop offset="0.37" stop-color="#2B69CE"/>
<stop offset="0.69" stop-color="#42A7CB"/>
<stop offset="1" stop-color="#58E2C8"/>
</linearGradient>
<linearGradient id="paint18_linear_342_2611" x1="49.6151" y1="201.504" x2="95.4877" y2="227.989" gradientUnits="userSpaceOnUse">
<stop stop-color="#5BEBC8"/>
<stop offset="0.37" stop-color="#2B69CE"/>
<stop offset="0.69" stop-color="#42A7CB"/>
<stop offset="1" stop-color="#58E2C8"/>
</linearGradient>
<linearGradient id="paint19_linear_342_2611" x1="55.6673" y1="192.516" x2="92.7815" y2="213.945" gradientUnits="userSpaceOnUse">
<stop stop-color="#5BEBC8"/>
<stop offset="0.37" stop-color="#2B69CE"/>
<stop offset="0.69" stop-color="#42A7CB"/>
<stop offset="1" stop-color="#58E2C8"/>
</linearGradient>
<linearGradient id="paint20_linear_342_2611" x1="60.4136" y1="182.802" x2="106.284" y2="209.285" gradientUnits="userSpaceOnUse">
<stop stop-color="#5BEBC8"/>
<stop offset="0.37" stop-color="#2B69CE"/>
<stop offset="0.69" stop-color="#42A7CB"/>
<stop offset="1" stop-color="#58E2C8"/>
</linearGradient>
<linearGradient id="paint21_linear_342_2611" x1="63.1729" y1="184.111" x2="102.564" y2="206.852" gradientUnits="userSpaceOnUse">
<stop stop-color="#5BEBC8"/>
<stop offset="0.37" stop-color="#2B69CE"/>
<stop offset="0.69" stop-color="#42A7CB"/>
<stop offset="1" stop-color="#58E2C8"/>
</linearGradient>
<linearGradient id="paint22_linear_342_2611" x1="60.4491" y1="182.737" x2="106.32" y2="209.219" gradientUnits="userSpaceOnUse">
<stop stop-color="#5BEBC8"/>
<stop offset="0.37" stop-color="#2B69CE"/>
<stop offset="0.69" stop-color="#42A7CB"/>
<stop offset="1" stop-color="#58E2C8"/>
</linearGradient>
<linearGradient id="paint23_linear_342_2611" x1="392.672" y1="130.724" x2="422.513" y2="147.955" gradientUnits="userSpaceOnUse">
<stop stop-color="#5BEBC8"/>
<stop offset="0.37" stop-color="#2B69CE"/>
<stop offset="0.69" stop-color="#42A7CB"/>
<stop offset="1" stop-color="#58E2C8"/>
</linearGradient>
<linearGradient id="paint24_linear_342_2611" x1="406.673" y1="107.025" x2="434.545" y2="123.117" gradientUnits="userSpaceOnUse">
<stop stop-color="#5BEBC8"/>
<stop offset="0.37" stop-color="#2B69CE"/>
<stop offset="0.69" stop-color="#42A7CB"/>
<stop offset="1" stop-color="#58E2C8"/>
</linearGradient>
<linearGradient id="paint25_linear_342_2611" x1="420.197" y1="83.0475" x2="450.036" y2="100.275" gradientUnits="userSpaceOnUse">
<stop stop-color="#5BEBC8"/>
<stop offset="0.37" stop-color="#2B69CE"/>
<stop offset="0.69" stop-color="#42A7CB"/>
<stop offset="1" stop-color="#58E2C8"/>
</linearGradient>
<linearGradient id="paint26_linear_342_2611" x1="85.2302" y1="336.548" x2="99.4009" y2="360.751" gradientUnits="userSpaceOnUse">
<stop/>
<stop offset="1" stop-color="white"/>
</linearGradient>
<linearGradient id="paint27_linear_342_2611" x1="45.5939" y1="307.159" x2="87.1403" y2="307.159" gradientUnits="userSpaceOnUse">
<stop stop-color="#B782FF"/>
<stop offset="0.16" stop-color="#B286FF"/>
<stop offset="0.36" stop-color="#A392FF"/>
<stop offset="0.58" stop-color="#8AA5FF"/>
<stop offset="0.81" stop-color="#67C0FF"/>
<stop offset="1" stop-color="#45DAFF"/>
</linearGradient>
<linearGradient id="paint28_linear_342_2611" x1="35.4165" y1="310.867" x2="97.3179" y2="310.867" gradientUnits="userSpaceOnUse">
<stop stop-color="#B782FF"/>
<stop offset="0.16" stop-color="#B286FF"/>
<stop offset="0.36" stop-color="#A392FF"/>
<stop offset="0.58" stop-color="#8AA5FF"/>
<stop offset="0.81" stop-color="#67C0FF"/>
<stop offset="1" stop-color="#45DAFF"/>
</linearGradient>
<radialGradient id="paint29_radial_342_2611" cx="0" cy="0" r="1" gradientUnits="userSpaceOnUse" gradientTransform="translate(66.3661 268.151) scale(8.34358 8.34358)">
<stop stop-color="#B782FF"/>
<stop offset="0.16" stop-color="#B286FF"/>
<stop offset="0.36" stop-color="#A392FF"/>
<stop offset="0.58" stop-color="#8AA5FF"/>
<stop offset="0.81" stop-color="#67C0FF"/>
<stop offset="1" stop-color="#45DAFF"/>
</radialGradient>
<linearGradient id="paint30_linear_342_2611" x1="63.9337" y1="269.798" x2="68.1125" y2="266.97" gradientUnits="userSpaceOnUse">
<stop stop-color="#B782FF"/>
<stop offset="0.16" stop-color="#B286FF"/>
<stop offset="0.36" stop-color="#A392FF"/>
<stop offset="0.58" stop-color="#8AA5FF"/>
<stop offset="0.81" stop-color="#67C0FF"/>
<stop offset="1" stop-color="#45DAFF"/>
</linearGradient>
<linearGradient id="paint31_linear_342_2611" x1="574.745" y1="320.494" x2="588.914" y2="344.694" gradientUnits="userSpaceOnUse">
<stop/>
<stop offset="1" stop-color="white"/>
</linearGradient>
<linearGradient id="paint32_linear_342_2611" x1="535.106" y1="291.103" x2="576.652" y2="291.103" gradientUnits="userSpaceOnUse">
<stop stop-color="#B782FF"/>
<stop offset="0.16" stop-color="#B286FF"/>
<stop offset="0.36" stop-color="#A392FF"/>
<stop offset="0.58" stop-color="#8AA5FF"/>
<stop offset="0.81" stop-color="#67C0FF"/>
<stop offset="1" stop-color="#45DAFF"/>
</linearGradient>
<linearGradient id="paint33_linear_342_2611" x1="524.928" y1="294.81" x2="586.83" y2="294.81" gradientUnits="userSpaceOnUse">
<stop stop-color="#B782FF"/>
<stop offset="0.16" stop-color="#B286FF"/>
<stop offset="0.36" stop-color="#A392FF"/>
<stop offset="0.58" stop-color="#8AA5FF"/>
<stop offset="0.81" stop-color="#67C0FF"/>
<stop offset="1" stop-color="#45DAFF"/>
</linearGradient>
<radialGradient id="paint34_radial_342_2611" cx="0" cy="0" r="1" gradientUnits="userSpaceOnUse" gradientTransform="translate(555.88 252.096) scale(8.34358 8.34357)">
<stop stop-color="#B782FF"/>
<stop offset="0.16" stop-color="#B286FF"/>
<stop offset="0.36" stop-color="#A392FF"/>
<stop offset="0.58" stop-color="#8AA5FF"/>
<stop offset="0.81" stop-color="#67C0FF"/>
<stop offset="1" stop-color="#45DAFF"/>
</radialGradient>
<linearGradient id="paint35_linear_342_2611" x1="553.445" y1="253.743" x2="557.626" y2="250.915" gradientUnits="userSpaceOnUse">
<stop stop-color="#B782FF"/>
<stop offset="0.16" stop-color="#B286FF"/>
<stop offset="0.36" stop-color="#A392FF"/>
<stop offset="0.58" stop-color="#8AA5FF"/>
<stop offset="0.81" stop-color="#67C0FF"/>
<stop offset="1" stop-color="#45DAFF"/>
</linearGradient>
<linearGradient id="paint36_linear_342_2611" x1="436.197" y1="315.247" x2="450.224" y2="339.208" gradientUnits="userSpaceOnUse">
<stop/>
<stop offset="1" stop-color="white"/>
</linearGradient>
<linearGradient id="paint37_linear_342_2611" x1="408.292" y1="311.264" x2="449.838" y2="311.264" gradientUnits="userSpaceOnUse">
<stop stop-color="#B782FF"/>
<stop offset="0.16" stop-color="#B286FF"/>
<stop offset="0.36" stop-color="#A392FF"/>
<stop offset="0.58" stop-color="#8AA5FF"/>
<stop offset="0.81" stop-color="#67C0FF"/>
<stop offset="1" stop-color="#45DAFF"/>
</linearGradient>
<radialGradient id="paint38_radial_342_2611" cx="0" cy="0" r="1" gradientUnits="userSpaceOnUse" gradientTransform="translate(429.063 292.449) scale(8.34358 8.34361)">
<stop stop-color="#B782FF"/>
<stop offset="0.16" stop-color="#B286FF"/>
<stop offset="0.36" stop-color="#A392FF"/>
<stop offset="0.58" stop-color="#8AA5FF"/>
<stop offset="0.81" stop-color="#67C0FF"/>
<stop offset="1" stop-color="#45DAFF"/>
</radialGradient>
<linearGradient id="paint39_linear_342_2611" x1="426.631" y1="294.096" x2="430.812" y2="291.266" gradientUnits="userSpaceOnUse">
<stop stop-color="#B782FF"/>
<stop offset="0.16" stop-color="#B286FF"/>
<stop offset="0.36" stop-color="#A392FF"/>
<stop offset="0.58" stop-color="#8AA5FF"/>
<stop offset="0.81" stop-color="#67C0FF"/>
<stop offset="1" stop-color="#45DAFF"/>
</linearGradient>
<linearGradient id="paint40_linear_342_2611" x1="407.657" y1="299.122" x2="429.191" y2="299.122" gradientUnits="userSpaceOnUse">
<stop stop-color="#B782FF"/>
<stop offset="0.16" stop-color="#B286FF"/>
<stop offset="0.36" stop-color="#A392FF"/>
<stop offset="0.58" stop-color="#8AA5FF"/>
<stop offset="0.81" stop-color="#67C0FF"/>
<stop offset="1" stop-color="#45DAFF"/>
</linearGradient>
<linearGradient id="paint41_linear_342_2611" x1="407.657" y1="305.178" x2="429.191" y2="305.178" gradientUnits="userSpaceOnUse">
<stop stop-color="#B782FF"/>
<stop offset="0.16" stop-color="#B286FF"/>
<stop offset="0.36" stop-color="#A392FF"/>
<stop offset="0.58" stop-color="#8AA5FF"/>
<stop offset="0.81" stop-color="#67C0FF"/>
<stop offset="1" stop-color="#45DAFF"/>
</linearGradient>
<linearGradient id="paint42_linear_342_2611" x1="407.657" y1="311.235" x2="429.191" y2="311.235" gradientUnits="userSpaceOnUse">
<stop stop-color="#B782FF"/>
<stop offset="0.16" stop-color="#B286FF"/>
<stop offset="0.36" stop-color="#A392FF"/>
<stop offset="0.58" stop-color="#8AA5FF"/>
<stop offset="0.81" stop-color="#67C0FF"/>
<stop offset="1" stop-color="#45DAFF"/>
</linearGradient>
<linearGradient id="paint43_linear_342_2611" x1="431.63" y1="312.254" x2="434.085" y2="312.254" gradientUnits="userSpaceOnUse">
<stop stop-color="#5BEBC8"/>
<stop offset="1" stop-color="#87FFE9"/>
</linearGradient>
<linearGradient id="paint44_linear_342_2611" x1="431.63" y1="317.934" x2="434.085" y2="317.934" gradientUnits="userSpaceOnUse">
<stop stop-color="#5BEBC8"/>
<stop offset="1" stop-color="#87FFE9"/>
</linearGradient>
<linearGradient id="paint45_linear_342_2611" x1="431.63" y1="323.616" x2="434.085" y2="323.616" gradientUnits="userSpaceOnUse">
<stop stop-color="#5BEBC8"/>
<stop offset="1" stop-color="#87FFE9"/>
</linearGradient>
<linearGradient id="paint46_linear_342_2611" x1="443.664" y1="311.966" x2="461.771" y2="311.966" gradientUnits="userSpaceOnUse">
<stop stop-color="#5BEBC8"/>
<stop offset="1" stop-color="#87FFE9"/>
</linearGradient>
<linearGradient id="paint47_linear_342_2611" x1="509.887" y1="78.3871" x2="531.111" y2="114.642" gradientUnits="userSpaceOnUse">
<stop/>
<stop offset="1" stop-color="white"/>
</linearGradient>
<linearGradient id="paint48_linear_342_2611" x1="461.441" y1="68.8887" x2="524.3" y2="68.8887" gradientUnits="userSpaceOnUse">
<stop stop-color="#B782FF"/>
<stop offset="0.16" stop-color="#B286FF"/>
<stop offset="0.36" stop-color="#A392FF"/>
<stop offset="0.58" stop-color="#8AA5FF"/>
<stop offset="0.81" stop-color="#67C0FF"/>
<stop offset="1" stop-color="#45DAFF"/>
</linearGradient>
<radialGradient id="paint49_radial_342_2611" cx="0" cy="0" r="1" gradientUnits="userSpaceOnUse" gradientTransform="translate(492.869 40.4214) scale(12.6241 12.6242)">
<stop stop-color="#B782FF"/>
<stop offset="0.16" stop-color="#B286FF"/>
<stop offset="0.36" stop-color="#A392FF"/>
<stop offset="0.58" stop-color="#8AA5FF"/>
<stop offset="0.81" stop-color="#67C0FF"/>
<stop offset="1" stop-color="#45DAFF"/>
</radialGradient>
<linearGradient id="paint50_linear_342_2611" x1="489.187" y1="42.914" x2="495.513" y2="38.6334" gradientUnits="userSpaceOnUse">
<stop stop-color="#B782FF"/>
<stop offset="0.16" stop-color="#B286FF"/>
<stop offset="0.36" stop-color="#A392FF"/>
<stop offset="0.58" stop-color="#8AA5FF"/>
<stop offset="0.81" stop-color="#67C0FF"/>
<stop offset="1" stop-color="#45DAFF"/>
</linearGradient>
<linearGradient id="paint51_linear_342_2611" x1="456.883" y1="53.0436" x2="489.464" y2="53.0436" gradientUnits="userSpaceOnUse">
<stop stop-color="#B782FF"/>
<stop offset="0.16" stop-color="#B286FF"/>
<stop offset="0.36" stop-color="#A392FF"/>
<stop offset="0.58" stop-color="#8AA5FF"/>
<stop offset="0.81" stop-color="#67C0FF"/>
<stop offset="1" stop-color="#45DAFF"/>
</linearGradient>
<linearGradient id="paint52_linear_342_2611" x1="456.883" y1="62.2077" x2="489.464" y2="62.2077" gradientUnits="userSpaceOnUse">
<stop stop-color="#B782FF"/>
<stop offset="0.16" stop-color="#B286FF"/>
<stop offset="0.36" stop-color="#A392FF"/>
<stop offset="0.58" stop-color="#8AA5FF"/>
<stop offset="0.81" stop-color="#67C0FF"/>
<stop offset="1" stop-color="#45DAFF"/>
</linearGradient>
<linearGradient id="paint53_linear_342_2611" x1="456.883" y1="71.3709" x2="489.464" y2="71.3709" gradientUnits="userSpaceOnUse">
<stop stop-color="#B782FF"/>
<stop offset="0.16" stop-color="#B286FF"/>
<stop offset="0.36" stop-color="#A392FF"/>
<stop offset="0.58" stop-color="#8AA5FF"/>
<stop offset="0.81" stop-color="#67C0FF"/>
<stop offset="1" stop-color="#45DAFF"/>
</linearGradient>
<linearGradient id="paint54_linear_342_2611" x1="493.157" y1="72.9192" x2="496.87" y2="72.9192" gradientUnits="userSpaceOnUse">
<stop stop-color="#5BEBC8"/>
<stop offset="1" stop-color="#87FFE9"/>
</linearGradient>
<linearGradient id="paint55_linear_342_2611" x1="493.157" y1="81.5138" x2="496.87" y2="81.5138" gradientUnits="userSpaceOnUse">
<stop stop-color="#5BEBC8"/>
<stop offset="1" stop-color="#87FFE9"/>
</linearGradient>
<linearGradient id="paint56_linear_342_2611" x1="493.157" y1="90.1107" x2="496.87" y2="90.1107" gradientUnits="userSpaceOnUse">
<stop stop-color="#5BEBC8"/>
<stop offset="1" stop-color="#87FFE9"/>
</linearGradient>
<linearGradient id="paint57_linear_342_2611" x1="511.358" y1="75.3481" x2="538.753" y2="75.3481" gradientUnits="userSpaceOnUse">
<stop stop-color="#5BEBC8"/>
<stop offset="1" stop-color="#87FFE9"/>
</linearGradient>
<linearGradient id="paint58_linear_342_2611" x1="106.488" y1="124.933" x2="120.517" y2="148.896" gradientUnits="userSpaceOnUse">
<stop/>
<stop offset="1" stop-color="white"/>
</linearGradient>
<linearGradient id="paint59_linear_342_2611" x1="76.4797" y1="119.751" x2="118.026" y2="119.751" gradientUnits="userSpaceOnUse">
<stop stop-color="#B782FF"/>
<stop offset="0.16" stop-color="#B286FF"/>
<stop offset="0.36" stop-color="#A392FF"/>
<stop offset="0.58" stop-color="#8AA5FF"/>
<stop offset="0.81" stop-color="#67C0FF"/>
<stop offset="1" stop-color="#45DAFF"/>
</linearGradient>
<radialGradient id="paint60_radial_342_2611" cx="0" cy="0" r="1" gradientUnits="userSpaceOnUse" gradientTransform="translate(97.2539 100.936) scale(8.34362 8.34358)">
<stop stop-color="#B782FF"/>
<stop offset="0.16" stop-color="#B286FF"/>
<stop offset="0.36" stop-color="#A392FF"/>
<stop offset="0.58" stop-color="#8AA5FF"/>
<stop offset="0.81" stop-color="#67C0FF"/>
<stop offset="1" stop-color="#45DAFF"/>
</radialGradient>
<linearGradient id="paint61_linear_342_2611" x1="94.8189" y1="102.582" x2="98.9997" y2="99.7526" gradientUnits="userSpaceOnUse">
<stop stop-color="#B782FF"/>
<stop offset="0.16" stop-color="#B286FF"/>
<stop offset="0.36" stop-color="#A392FF"/>
<stop offset="0.58" stop-color="#8AA5FF"/>
<stop offset="0.81" stop-color="#67C0FF"/>
<stop offset="1" stop-color="#45DAFF"/>
</linearGradient>
<linearGradient id="paint62_linear_342_2611" x1="74.3149" y1="107.61" x2="95.8485" y2="107.61" gradientUnits="userSpaceOnUse">
<stop stop-color="#B782FF"/>
<stop offset="0.16" stop-color="#B286FF"/>
<stop offset="0.36" stop-color="#A392FF"/>
<stop offset="0.58" stop-color="#8AA5FF"/>
<stop offset="0.81" stop-color="#67C0FF"/>
<stop offset="1" stop-color="#45DAFF"/>
</linearGradient>
<linearGradient id="paint63_linear_342_2611" x1="74.3149" y1="113.667" x2="95.8485" y2="113.667" gradientUnits="userSpaceOnUse">
<stop stop-color="#B782FF"/>
<stop offset="0.16" stop-color="#B286FF"/>
<stop offset="0.36" stop-color="#A392FF"/>
<stop offset="0.58" stop-color="#8AA5FF"/>
<stop offset="0.81" stop-color="#67C0FF"/>
<stop offset="1" stop-color="#45DAFF"/>
</linearGradient>
<linearGradient id="paint64_linear_342_2611" x1="74.3149" y1="119.722" x2="95.8485" y2="119.722" gradientUnits="userSpaceOnUse">
<stop stop-color="#B782FF"/>
<stop offset="0.16" stop-color="#B286FF"/>
<stop offset="0.36" stop-color="#A392FF"/>
<stop offset="0.58" stop-color="#8AA5FF"/>
<stop offset="0.81" stop-color="#67C0FF"/>
<stop offset="1" stop-color="#45DAFF"/>
</linearGradient>
<linearGradient id="paint65_linear_342_2611" x1="98.286" y1="120.739" x2="100.741" y2="120.739" gradientUnits="userSpaceOnUse">
<stop stop-color="#5BEBC8"/>
<stop offset="1" stop-color="#87FFE9"/>
</linearGradient>
<linearGradient id="paint66_linear_342_2611" x1="98.286" y1="126.421" x2="100.741" y2="126.421" gradientUnits="userSpaceOnUse">
<stop stop-color="#5BEBC8"/>
<stop offset="1" stop-color="#87FFE9"/>
</linearGradient>
<linearGradient id="paint67_linear_342_2611" x1="98.286" y1="132.101" x2="100.741" y2="132.101" gradientUnits="userSpaceOnUse">
<stop stop-color="#5BEBC8"/>
<stop offset="1" stop-color="#87FFE9"/>
</linearGradient>
<linearGradient id="paint68_linear_342_2611" x1="110.32" y1="122.012" x2="128.427" y2="122.012" gradientUnits="userSpaceOnUse">
<stop stop-color="#5BEBC8"/>
<stop offset="1" stop-color="#87FFE9"/>
</linearGradient>
<linearGradient id="paint69_linear_342_2611" x1="432.326" y1="145.372" x2="512.607" y2="145.372" gradientUnits="userSpaceOnUse">
<stop stop-color="#5BEBC8"/>
<stop offset="0.37" stop-color="#2B69CE"/>
<stop offset="0.69" stop-color="#42A7CB"/>
<stop offset="1" stop-color="#58E2C8"/>
</linearGradient>
<linearGradient id="paint70_linear_342_2611" x1="107.982" y1="188.706" x2="455.908" y2="188.706" gradientUnits="userSpaceOnUse">
<stop stop-color="#83D0E8"/>
<stop offset="1" stop-color="#68A9CD"/>
</linearGradient>
<linearGradient id="paint71_linear_342_2611" x1="107.98" y1="181.873" x2="455.912" y2="181.873" gradientUnits="userSpaceOnUse">
<stop stop-color="#F2F7FF"/>
<stop offset="1" stop-color="#D6E5FF"/>
</linearGradient>
<linearGradient id="paint72_linear_342_2611" x1="129.318" y1="181.873" x2="434.571" y2="181.873" gradientUnits="userSpaceOnUse">
<stop stop-color="#5BEBC8"/>
<stop offset="0.37" stop-color="#2B69CE"/>
<stop offset="0.69" stop-color="#42A7CB"/>
<stop offset="1" stop-color="#58E2C8"/>
</linearGradient>
<linearGradient id="paint73_linear_342_2611" x1="281.947" y1="323.491" x2="281.947" y2="132.744" gradientUnits="userSpaceOnUse">
<stop stop-color="#45CDFF"/>
<stop offset="1"/>
</linearGradient>
<linearGradient id="paint74_linear_342_2611" x1="281.942" y1="323.491" x2="281.942" y2="132.744" gradientUnits="userSpaceOnUse">
<stop stop-color="#45CDFF"/>
<stop offset="1"/>
</linearGradient>
<linearGradient id="paint75_linear_342_2611" x1="324.854" y1="-5.82464" x2="238.336" y2="163.64" gradientUnits="userSpaceOnUse">
<stop stop-color="#E7EFF5"/>
<stop offset="1" stop-color="#C7DFFF"/>
</linearGradient>
<linearGradient id="paint76_linear_342_2611" x1="206.475" y1="87.9264" x2="323.097" y2="87.9264" gradientUnits="userSpaceOnUse">
<stop stop-color="#8173FF"/>
<stop offset="1" stop-color="#5EB1FF"/>
</linearGradient>
<linearGradient id="paint77_linear_342_2611" x1="219.059" y1="95.1582" x2="305.313" y2="95.1582" gradientUnits="userSpaceOnUse">
<stop stop-color="#8173FF"/>
<stop offset="1" stop-color="#5EB1FF"/>
</linearGradient>
<linearGradient id="paint78_linear_342_2611" x1="233.399" y1="103.4" x2="285.048" y2="103.4" gradientUnits="userSpaceOnUse">
<stop stop-color="#8173FF"/>
<stop offset="1" stop-color="#5EB1FF"/>
</linearGradient>
</defs>
</svg>
